<?xml version="1.0" encoding="UTF-8"?>
<svg version="1.1" xmlns="http://www.w3.org/2000/svg" width="159" height="148">
<path d="M0 0 C52.47 0 104.94 0 159 0 C159 48.84 159 97.68 159 148 C106.53 148 54.06 148 0 148 C0 99.16 0 50.32 0 0 Z " fill="#FDFEFE" transform="translate(0,0)"/>
<path d="M0 0 C1.32 0.33 2.64 0.66 4 1 C4.226875 2.11375 4.45375 3.2275 4.6875 4.375 C5.57609471 8.09877973 5.57609471 8.09877973 8.25 9.1875 C9.1575 9.455625 10.065 9.72375 11 10 C16.74707758 13.20510096 16.74707758 13.20510096 17.875 16.75 C17.91625 17.4925 17.9575 18.235 18 19 C18.46148437 18.65066406 18.92296875 18.30132812 19.3984375 17.94140625 C24.2857676 14.53186569 27.83269551 13.60190083 33.73828125 13.3125 C36.95900216 12.86749538 38.64761614 11.14482057 41 9 C42.32 9 43.64 9 45 9 C45.55072525 15.33334043 44.18651896 20.47670047 41 26 C37.5796783 29.81281763 33.76416514 33.03056166 29 35 C26.66796188 35.0777346 24.33160941 35.08967728 22 35 C22.0825 36.155 22.165 37.31 22.25 38.5 C22.19588143 55.68264448 14.1146698 70.45277276 3 83 C5.28459758 85.28459758 7.12537344 85.97129748 10.125 87.125 C11.03507812 87.47820312 11.94515625 87.83140625 12.8828125 88.1953125 C13.58148438 88.46085937 14.28015625 88.72640625 15 89 C14.125 93.875 14.125 93.875 13 95 C11.33426735 95.01413395 9.66791122 94.96387132 8.00390625 94.88671875 C6.96943359 94.85642578 5.93496094 94.82613281 4.86914062 94.79492188 C2.69910062 94.72442441 0.52959906 94.63393284 -1.63867188 94.52148438 C-9.81938595 94.33498627 -14.37202662 96.39361357 -21 101 C-33.16627641 106.00964323 -49.7519275 105.70812051 -62.03125 101.3359375 C-69.34838374 98.04322732 -76.16694557 93.51775419 -82 88 C-82 87.34 -82 86.68 -82 86 C-82.66 86 -83.32 86 -84 86 C-94.76230177 73.74669924 -98.59310386 58.61879665 -98.3046875 42.67578125 C-97.40363235 31.80535951 -91.82310544 22.63601772 -84.0546875 15.1171875 C-77.24479074 9.63067149 -68.22757208 5.6995501 -59.40234375 6.04296875 C-46.50398909 6.47899489 -46.50398909 6.47899489 -34.234375 2.89453125 C-30.68793958 1.47471707 -27.77398748 1.65691023 -24 2 C-23.01 2.495 -23.01 2.495 -22 3 C-22 3.66 -22 4.32 -22 5 C-22.680625 5.5775 -23.36125 6.155 -24.0625 6.75 C-26.27097648 8.87145427 -26.27097648 8.87145427 -26.25 11.875 C-24.41030431 16.47423924 -21.06450647 18.37467675 -17 21 C-16.01 21.66 -15.02 22.32 -14 23 C-14 23.66 -14 24.32 -14 25 C-13.34 25 -12.68 25 -12 25 C-9.375 27.375 -9.375 27.375 -7 30 C-7 30.66 -7 31.32 -7 32 C-6.34 32 -5.68 32 -5 32 C-5 32.66 -5 33.32 -5 34 C-4.443125 34.268125 -3.88625 34.53625 -3.3125 34.8125 C-1 36 -1 36 1.5625 37.625 C3.96905979 39.24566059 3.96905979 39.24566059 7 39 C8.12610897 36.35406512 8.12610897 36.35406512 8 33 C6.64440945 31.31364022 6.64440945 31.31364022 4.8125 29.75 C-0.02434038 25.36782262 -2.3095621 20.29169923 -3.34375 13.86328125 C-3.58741937 8.69545999 -1.99390925 4.65245492 0 0 Z " fill="#4E6CFE" transform="translate(106,22)"/>
<path d="M0 0 C16.07377281 0.08954748 30.03200953 6.19825849 41.7578125 17.21875 C46.64735614 22.42631274 50.49340184 28.31898171 54.45727539 34.23339844 C59.73937409 42.01484059 66.01364978 48.64514107 72.6796875 55.265625 C63.59380391 56.09580726 58.72647264 54.95773716 51.6796875 49.265625 C45.84817752 44.93990398 40.63571097 41.45548424 33.6796875 39.265625 C34.0303125 40.4825 34.3809375 41.699375 34.7421875 42.953125 C35.61425102 46.38649396 35.75671919 48.81912359 34.6796875 52.265625 C25.78463575 53.07426607 20.25260271 49.53985 13.4921875 44.015625 C3.30797919 34.65989395 -3.0523071 20.65786102 -4.5703125 7.01953125 C-4.6328125 5.140625 -4.6328125 5.140625 -4.3203125 2.265625 C-2.3203125 0.265625 -2.3203125 0.265625 0 0 Z " fill="#FBFCFE" transform="translate(21.3203125,58.734375)"/>
<path d="M0 0 C5.95197052 0.12399939 8.89769668 1.95547818 13.1953125 6.02734375 C15.8195726 8.89585317 17.44658531 11.42039225 19 15 C18.75 17.4375 18.75 17.4375 18 19 C14.8125 19.8125 14.8125 19.8125 11 20 C8.125 18.0625 8.125 18.0625 6 15 C5.71875 12.98828125 5.71875 12.98828125 5.625 10.875 C5.47429405 7.05954787 5.47429405 7.05954787 3.39453125 5.8203125 C1.22680838 4.86813297 1.22680838 4.86813297 -2 4 C-1.34 2.68 -0.68 1.36 0 0 Z " fill="#F5F7FE" transform="translate(84,63)"/>
</svg>
