<svg width="24" height="24" viewBox="0 0 24 24" fill="none" xmlns="http://www.w3.org/2000/svg">
<rect width="24" height="24" rx="7.2" fill="white"/>
<g clip-path="url(#clip0_742_4798)">
<path d="M12.2498 10.6909V13.4793H16.1247C15.9546 14.376 15.444 15.1353 14.6781 15.6458L17.0149 17.4589C18.3763 16.2022 19.1618 14.3564 19.1618 12.1637C19.1618 11.6532 19.116 11.1622 19.0309 10.691L12.2498 10.6909Z" fill="#4285F4"/>
<path d="M8.21474 13.3704L7.68772 13.7738L5.82224 15.2269C7.00696 17.5767 9.43514 19.2 12.2497 19.2C14.1936 19.2 15.8234 18.5585 17.0147 17.4589L14.678 15.6458C14.0365 16.0778 13.2184 16.3396 12.2497 16.3396C10.3777 16.3396 8.78718 15.0764 8.21768 13.3745L8.21474 13.3704Z" fill="#34A853"/>
<path d="M5.82223 8.77307C5.33135 9.74176 5.04993 10.8349 5.04993 11.9999C5.04993 13.165 5.33135 14.2581 5.82223 15.2268C5.82223 15.2333 8.21791 13.3679 8.21791 13.3679C8.07391 12.9359 7.9888 12.4777 7.9888 11.9999C7.9888 11.522 8.07391 11.0638 8.21791 10.6318L5.82223 8.77307Z" fill="#FBBC05"/>
<path d="M12.2498 7.66689C13.3102 7.66689 14.2527 8.03343 15.0054 8.74035L17.0672 6.67856C15.8171 5.51349 14.1938 4.79999 12.2498 4.79999C9.43529 4.79999 7.00696 6.41671 5.82224 8.77308L8.21784 10.632C8.78726 8.93016 10.3778 7.66689 12.2498 7.66689Z" fill="#EA4335"/>
</g>
<defs>
<clipPath id="clip0_742_4798">
<rect width="14.4" height="14.4" fill="white" transform="translate(5.04993 4.79999)"/>
</clipPath>
</defs>
</svg>
