<?xml version="1.0" encoding="UTF-8"?>
<svg version="1.1" xmlns="http://www.w3.org/2000/svg" width="48" height="48">
<path d="M0 0 C0.86625 0.66 1.7325 1.32 2.625 2 C1.34931911 4.84574968 0.21003711 7.18089981 -2.375 9 C-4.5625 8.6875 -4.5625 8.6875 -7.375 8 C-11.77888794 7.49976121 -14.49757399 7.43994084 -18.3125 9.875 C-21.47195358 13.1301946 -21.70921243 15.42413238 -21.66796875 19.9609375 C-21.21245033 23.13134567 -19.62184343 24.8192402 -17.375 27 C-14.17326746 28.60086627 -10.84922941 28.49917089 -7.375 28 C-4.5649654 26.20636089 -2.86559532 24.98119065 -1.375 22 C-4.675 22 -7.975 22 -11.375 22 C-11.375 19.36 -11.375 16.72 -11.375 14 C-4.775 14 1.825 14 8.625 14 C9.19277118 21.47565381 9.04030265 26.10005456 4.37109375 32.1171875 C-0.50099137 37.3707558 -4.23583594 38.27052074 -11.25 38.625 C-18.1295541 38.41275844 -22.46466706 36.82399741 -27.375 32 C-31.95957499 26.63269269 -32.10130365 21.40863559 -31.88671875 14.453125 C-30.87605898 7.63310029 -27.4827533 3.80037261 -22.375 -0.5625 C-15.88315383 -3.70698799 -6.24645822 -3.5694047 0 0 Z " fill="#5CAF4C" transform="translate(35.375,6)"/>
<path d="M0 0 C0.86625 0.66 1.7325 1.32 2.625 2 C1.34931911 4.84574968 0.21003711 7.18089981 -2.375 9 C-4.5625 8.6875 -4.5625 8.6875 -7.375 8 C-11.48524661 7.533116 -14.47643009 7.57024917 -18.25 9.375 C-20.95294222 12.71392863 -21.08125835 15.41759126 -21.71484375 19.58203125 C-22.80528529 23.57601537 -24.93386864 24.8492929 -28.375 27 C-29.035 27 -29.695 27 -30.375 27 C-32.73601623 22.27796754 -31.94672766 16.10706729 -31.375 11 C-29.34027103 5.81870802 -25.74287158 1.0688128 -20.625 -1.41015625 C-14.00671961 -3.14515684 -6.06653556 -3.46659175 0 0 Z " fill="#FF4700" transform="translate(35.375,6)"/>
<path d="M0 0 C6.6 0 13.2 0 20 0 C20.3636891 10.06206497 20.3636891 10.06206497 18.8125 14.0625 C16.70723066 16.31296033 14.93307315 17.12800528 12 18 C10.68 16.35 9.36 14.7 8 13 C8.66 11.35 9.32 9.7 10 8 C6.7 8 3.4 8 0 8 C0 5.36 0 2.72 0 0 Z " fill="#1E77CD" transform="translate(24,20)"/>
<path d="M0 0 C2.9719385 1.12451727 5.33440687 2.22293791 8 4 C8.77793335 7.06951995 8.67532462 9.9158403 8 13 C6.20171795 15.3977094 4.61319488 16.37981917 2 18 C1.34 18 0.68 18 0 18 C-1.48619895 15.02760209 -1.13177009 12.30380422 -1.125 9 C-1.12757812 7.741875 -1.13015625 6.48375 -1.1328125 5.1875 C-1 2 -1 2 0 0 Z " fill="#FDBF07" transform="translate(5,15)"/>
<path d="M0 0 C0.66 0.33 1.32 0.66 2 1 C-0.64 3.64 -3.28 6.28 -6 9 C-6 6 -6 6 -3.5625 3.375 C-2.716875 2.59125 -1.87125 1.8075 -1 1 C-0.67 0.67 -0.34 0.34 0 0 Z " fill="#FF6401" transform="translate(13,6)"/>
</svg>
