<?xml version="1.0" encoding="UTF-8"?>
<svg version="1.1" xmlns="http://www.w3.org/2000/svg" width="225" height="135">
<path d="M0 0 C74.25 0 148.5 0 225 0 C225 44.55 225 89.1 225 135 C150.75 135 76.5 135 0 135 C0 90.45 0 45.9 0 0 Z " fill="#FD8205" transform="translate(0,0)"/>
<path d="M0 0 C11.55 0 23.1 0 35 0 C35 44.55 35 89.1 35 135 C33.68 135 32.36 135 31 135 C31 128.4 31 121.8 31 115 C20.77 115 10.54 115 0 115 C0 77.05 0 39.1 0 0 Z " fill="#FEFEFE" transform="translate(190,0)"/>
<path d="M0 0 C11.22 0 22.44 0 34 0 C34 37.95 34 75.9 34 115 C23.77 115 13.54 115 3 115 C3 121.6 3 128.2 3 135 C2.01 135 1.02 135 0 135 C0 90.45 0 45.9 0 0 Z " fill="#FEFEFE" transform="translate(0,0)"/>
<path d="M0 0 C31.02 0 62.04 0 94 0 C94 6.93 94 13.86 94 21 C83.77 21 73.54 21 63 21 C63 31.23 63 41.46 63 52 C52.44 52 41.88 52 31 52 C31 41.77 31 31.54 31 21 C20.77 21 10.54 21 0 21 C0 14.07 0 7.14 0 0 Z " fill="#FEFDF8" transform="translate(65,0)"/>
<path d="M0 0 C10.23 0 20.46 0 31 0 C31 6.93 31 13.86 31 21 C41.23 21 51.46 21 62 21 C62 31.23 62 41.46 62 52 C72.56 52 83.12 52 94 52 C94 52.33 94 52.66 94 53 C81.89158056 53.02312178 69.78316633 53.04091424 57.67472935 53.05181217 C52.05292038 53.05704136 46.43112647 53.06413966 40.80932617 53.07543945 C35.38881723 53.08626706 29.9683228 53.09227656 24.54780388 53.09487724 C22.47485055 53.09673172 20.40189806 53.10035277 18.32895088 53.10573006 C15.43616107 53.1129388 12.54343204 53.11399101 9.65063477 53.11352539 C8.78461136 53.11712067 7.91858795 53.12071594 7.02632141 53.12442017 C1.11405216 53.11405216 1.11405216 53.11405216 0 52 C-0.09340434 50.37325222 -0.11745171 48.74245949 -0.11352539 47.11303711 C-0.11344986 46.07203354 -0.11337433 45.03102997 -0.11329651 43.95848083 C-0.10813522 42.8262056 -0.10297394 41.69393036 -0.09765625 40.52734375 C-0.0962413 39.37456436 -0.09482635 38.22178497 -0.09336853 37.03407288 C-0.08775005 33.33518936 -0.07519442 29.63636536 -0.0625 25.9375 C-0.05748738 23.43684983 -0.05292406 20.93619871 -0.04882812 18.43554688 C-0.0386235 12.29032295 -0.01905169 6.14522845 0 0 Z " fill="#FCAE06" transform="translate(34,0)"/>
<path d="M0 0 C10.23 0 20.46 0 31 0 C31 17.16 31 34.32 31 52 C10.54 52 -9.92 52 -31 52 C-31 41.77 -31 31.54 -31 21 C-20.77 21 -10.54 21 0 21 C0 14.07 0 7.14 0 0 Z " fill="#FCAF05" transform="translate(159,0)"/>
<path d="M0 0 C0 6.6 0 13.2 0 20 C-30.69 20 -61.38 20 -93 20 C-93 13.4 -93 6.8 -93 0 C-83.68775466 -0.20116092 -74.37530679 -0.38935834 -65.0625 -0.5625 C-64.37811356 -0.57523327 -63.69372711 -0.58796654 -62.98860168 -0.60108566 C-41.96302766 -0.98755042 -21.01002173 -1.044076 0 0 Z " fill="#DE0601" transform="translate(221,115)"/>
<path d="M0 0 C30.69 0 61.38 0 93 0 C93 6.6 93 13.2 93 20 C62.31 20 31.62 20 0 20 C0 13.4 0 6.8 0 0 Z " fill="#DE0601" transform="translate(3,115)"/>
<path d="M0 0 C10.23 0 20.46 0 31 0 C31 10.23 31 20.46 31 31 C20.77 31 10.54 31 0 31 C0 20.77 0 10.54 0 0 Z " fill="#FDFDFB" transform="translate(128,83)"/>
<path d="M0 0 C10.23 0 20.46 0 31 0 C31 10.23 31 20.46 31 31 C20.77 31 10.54 31 0 31 C0 20.77 0 10.54 0 0 Z " fill="#F95010" transform="translate(34,84)"/>
<path d="M0 0 C10.23 0 20.46 0 31 0 C31 10.23 31 20.46 31 31 C20.77 31 10.54 31 0 31 C0 20.77 0 10.54 0 0 Z " fill="#FDFDFD" transform="translate(65,83)"/>
<path d="M0 0 C10.23 0 20.46 0 31 0 C31 9.9 31 19.8 31 30 C28.12981559 31.43509221 25.66456277 31.11158506 22.4609375 31.09765625 C21.28837402 31.09515869 20.11581055 31.09266113 18.90771484 31.09008789 C16.664021 31.07643188 16.664021 31.07643188 14.375 31.0625 C9.63125 31.041875 4.8875 31.02125 0 31 C0 20.77 0 10.54 0 0 Z " fill="#F64F11" transform="translate(159,84)"/>
<path d="M0 0 C4.021875 -0.020625 8.04375 -0.04125 12.1875 -0.0625 C13.44715576 -0.071604 14.70681152 -0.08070801 16.00463867 -0.09008789 C17.50861206 -0.09383423 17.50861206 -0.09383423 19.04296875 -0.09765625 C20.06414795 -0.10289307 21.08532715 -0.10812988 22.13745117 -0.11352539 C25 0 25 0 30 1 C30 11.23 30 21.46 30 32 C20.1 32 10.2 32 0 32 C0 21.44 0 10.88 0 0 Z " fill="#F85110" transform="translate(97,82)"/>
<path d="M0 0 C9.9 0 19.8 0 30 0 C30 6.93 30 13.86 30 21 C20.1 21 10.2 21 0 21 C0 14.07 0 7.14 0 0 Z " fill="#FDD604" transform="translate(159,0)"/>
<path d="M0 0 C9.9 0 19.8 0 30 0 C30 6.93 30 13.86 30 21 C20.1 21 10.2 21 0 21 C0 14.07 0 7.14 0 0 Z " fill="#FDD604" transform="translate(35,0)"/>
<path d="M0 0 C9.9 0 19.8 0 30 0 C30 6.6 30 13.2 30 20 C20.1 20 10.2 20 0 20 C0 13.4 0 6.8 0 0 Z " fill="#FDFCFB" transform="translate(97,115)"/>
<path d="M0 0 C0.33 0 0.66 0 1 0 C1 10.56 1 21.12 1 32 C10.9 32 20.8 32 31 32 C31 22.1 31 12.2 31 2 C31.33 2 31.66 2 32 2 C32 11.9 32 21.8 32 32 C42.23 32 52.46 32 63 32 C63 32.33 63 32.66 63 33 C52.77 33 42.54 33 32 33 C32 39.6 32 46.2 32 53 C31.67 53 31.34 53 31 53 C31 46.4 31 39.8 31 33 C21.1 33 11.2 33 1 33 C1 39.6 1 46.2 1 53 C0.67 53 0.34 53 0 53 C0 46.4 0 39.8 0 33 C-10.23 33 -20.46 33 -31 33 C-31 32.67 -31 32.34 -31 32 C-20.77 32 -10.54 32 0 32 C0 21.44 0 10.88 0 0 Z " fill="#FEA091" transform="translate(96,82)"/>
<path d="M0 0 C0.33 0 0.66 0 1 0 C1.33 37.62 1.66 75.24 2 114 C12.23 114 22.46 114 33 114 C33.82327288 118.93963727 33.97504832 122.9813234 33.5625 127.875 C33.51029297 128.56335938 33.45808594 129.25171875 33.40429688 129.9609375 C33.27594902 131.64112758 33.13887775 133.32064749 33 135 C32.34 135 31.68 135 31 135 C31 128.4 31 121.8 31 115 C20.77 115 10.54 115 0 115 C0 77.05 0 39.1 0 0 Z " fill="#FFF5D0" transform="translate(190,0)"/>
<path d="M0 0 C10.23 0 20.46 0 31 0 C31 10.23 31 20.46 31 31 C20.77 31 10.54 31 0 31 C0 20.77 0 10.54 0 0 Z M2 2 C2 10.91 2 19.82 2 29 C5.17787541 30.0592918 7.42588943 30.11458939 10.76171875 30.09765625 C11.76936279 30.09515869 12.77700684 30.09266113 13.81518555 30.09008789 C15.09304932 30.08098389 16.37091309 30.07187988 17.6875 30.0625 C21.750625 30.041875 25.81375 30.02125 30 30 C30 20.76 30 11.52 30 2 C20.76 2 11.52 2 2 2 Z " fill="#FEEDD7" transform="translate(65,83)"/>
<path d="M0 0 C0.33 0 0.66 0 1 0 C1 10.56 1 21.12 1 32 C-7.1204311 32.02098303 -15.24076373 32.04101728 -23.36119843 32.05175018 C-27.14291039 32.0570256 -30.92459985 32.06407285 -34.70629883 32.07543945 C-38.3502506 32.0863232 -41.99418058 32.09228847 -45.63814735 32.09487724 C-47.02677058 32.0967216 -48.41539265 32.10032316 -49.80400658 32.10573006 C-51.75238248 32.11301321 -53.70078041 32.11340868 -55.64916992 32.11352539 C-56.7572551 32.115746 -57.86534027 32.11796661 -59.00700378 32.12025452 C-61.78747858 32.00853882 -64.29583718 31.63378418 -67 31 C-66.01 30.67 -65.02 30.34 -64 30 C-64 29.34 -64 28.68 -64 28 C-63.17201904 28.03029297 -62.34403809 28.06058594 -61.4909668 28.09179688 C-46.58020888 28.62626948 -31.6711329 29.10513675 -16.75 29.1875 C-15.05750122 29.20683594 -15.05750122 29.20683594 -13.33081055 29.2265625 C-12.28836182 29.22785156 -11.24591309 29.22914062 -10.171875 29.23046875 C-9.2653418 29.23457764 -8.35880859 29.23868652 -7.42480469 29.24291992 C-4.6216343 29.10734018 -4.6216343 29.10734018 -1 27 C-0.67 18.09 -0.34 9.18 0 0 Z " fill="#F47717" transform="translate(189,52)"/>
<path d="M0 0 C0.33 0 0.66 0 1 0 C1 37.95 1 75.9 1 115 C-9.23 115 -19.46 115 -30 115 C-30 114.67 -30 114.34 -30 114 C-20.76 114 -11.52 114 -2 114 C-2 113.34 -2 112.68 -2 112 C-1.34 112 -0.68 112 0 112 C0 75.04 0 38.08 0 0 Z " fill="#FFF4C4" transform="translate(33,0)"/>
<path d="M0 0 C0.33 0 0.66 0 1 0 C1 9.24 1 18.48 1 28 C1.99 28 2.98 28 4 28 C4 23.05 4 18.1 4 13 C4.33 13 4.66 13 5 13 C5 17.95 5 22.9 5 28 C7.9195043 28.9731681 10.05444951 29.1929546 13.10546875 29.31640625 C14.43421021 29.37356812 14.43421021 29.37356812 15.78979492 29.43188477 C16.9110376 29.47498779 18.03228027 29.51809082 19.1875 29.5625 C22.755625 29.706875 26.32375 29.85125 30 30 C30 20.1 30 10.2 30 0 C30.33 0 30.66 0 31 0 C31 10.23 31 20.46 31 31 C20.77 31 10.54 31 0 31 C0 20.77 0 10.54 0 0 Z " fill="#DF461A" transform="translate(34,84)"/>
<path d="M0 0 C10.23 0 20.46 0 31 0 C31 10.23 31 20.46 31 31 C29.35 31 27.7 31 26 31 C26 30.34 26 29.68 26 29 C26.66 28.67 27.32 28.34 28 28 C27.99214478 26.97845825 27.99214478 26.97845825 27.98413086 25.9362793 C27.96335542 22.85336223 27.95033802 19.7704599 27.9375 16.6875 C27.92912109 15.61564453 27.92074219 14.54378906 27.91210938 13.43945312 C27.90888672 12.41142578 27.90566406 11.38339844 27.90234375 10.32421875 C27.89710693 9.37635498 27.89187012 8.42849121 27.88647461 7.4519043 C28 5 28 5 29 2 C19.43 1.67 9.86 1.34 0 1 C0 0.67 0 0.34 0 0 Z " fill="#FEEACE" transform="translate(128,83)"/>
<path d="M0 0 C0.33 0 0.66 0 1 0 C1.33 9.24 1.66 18.48 2 28 C3.98 28.66 5.96 29.32 8 30 C8 20.43 8 10.86 8 1 C8.66 1 9.32 1 10 1 C10.33 10.9 10.66 20.8 11 31 C7.37 31.33 3.74 31.66 0 32 C0 21.44 0 10.88 0 0 Z " fill="#F48219" transform="translate(34,52)"/>
<path d="M0 0 C10.56 0 21.12 0 32 0 C32 0.66 32 1.32 32 2 C22.43 2.33 12.86 2.66 3 3 C2.67 8.61 2.34 14.22 2 20 C1.34 20 0.68 20 0 20 C0 13.4 0 6.8 0 0 Z " fill="#C11113" transform="translate(3,115)"/>
<path d="M0 0 C0.33 0 0.66 0 1 0 C1 9.9 1 19.8 1 30 C-8.9 30 -18.8 30 -29 30 C-29 29.67 -29 29.34 -29 29 C-19.76 28.67 -10.52 28.34 -1 28 C-1.40716296 20.28107038 -1.40716296 20.28107038 -1.83837891 12.56347656 C-1.90677979 11.11666504 -1.90677979 11.11666504 -1.9765625 9.640625 C-2.02893066 8.65610352 -2.08129883 7.67158203 -2.13525391 6.65722656 C-1.99441807 3.8903362 -1.42542979 2.34490497 0 0 Z " fill="#E65119" transform="translate(126,84)"/>
<path d="M0 0 C10.89 0 21.78 0 33 0 C33.82327288 4.93963727 33.97504832 8.9813234 33.5625 13.875 C33.51029297 14.56335938 33.45808594 15.25171875 33.40429688 15.9609375 C33.27594902 17.64112758 33.13887775 19.32064749 33 21 C32.34 21 31.68 21 31 21 C31 14.4 31 7.8 31 1 C20.77 1 10.54 1 0 1 C0 0.67 0 0.34 0 0 Z " fill="#FEBBBB" transform="translate(190,114)"/>
<path d="M0 0 C4.52104123 0.09344448 9.04154113 0.1995163 13.56201172 0.31738281 C15.10034021 0.35570301 16.63875925 0.39055056 18.17724609 0.421875 C20.38672276 0.46746059 22.59557448 0.5254634 24.8046875 0.5859375 C25.49432587 0.59748871 26.18396423 0.60903992 26.89450073 0.62094116 C31.77225659 0.77225659 31.77225659 0.77225659 34 3 C29.53450019 3.16821435 25.06880839 3.32870773 20.6027832 3.48217773 C19.08480439 3.5354146 17.5668969 3.59072853 16.04907227 3.64819336 C13.86229831 3.73061847 11.67537334 3.80547122 9.48828125 3.87890625 C8.17384033 3.9260376 6.85939941 3.97316895 5.50512695 4.02172852 C2.48006575 4.00297596 -0.07816374 3.72984472 -3 3 C-2.01 2.67 -1.02 2.34 0 2 C0 1.34 0 0.68 0 0 Z " fill="#EA8421" transform="translate(125,80)"/>
<path d="M0 0 C0.33 0 0.66 0 1 0 C1 10.56 1 21.12 1 32 C-9.23 32 -19.46 32 -30 32 C-30 31.67 -30 31.34 -30 31 C-20.76 31 -11.52 31 -2 31 C-2 30.34 -2 29.68 -2 29 C-1.34 29 -0.68 29 0 29 C0 19.43 0 9.86 0 0 Z " fill="#FEBFB8" transform="translate(33,83)"/>
<path d="M0 0 C16.335 0.495 16.335 0.495 33 1 C33 7.6 33 14.2 33 21 C32.67 21 32.34 21 32 21 C31.505 11.595 31.505 11.595 31 2 C22.09 2 13.18 2 4 2 C4 2.66 4 3.32 4 4 C2.68 4 1.36 4 0 4 C0 2.68 0 1.36 0 0 Z " fill="#BA1618" transform="translate(188,114)"/>
<path d="M0 0 C0.99 0 1.98 0 3 0 C3 6.93 3 13.86 3 21 C2.01 21 1.02 21 0 21 C0 14.07 0 7.14 0 0 Z " fill="#FEE7E3" transform="translate(0,114)"/>
<path d="M0 0 C0.66 0 1.32 0 2 0 C2 0.66 2 1.32 2 2 C3.11375 1.95875 4.2275 1.9175 5.375 1.875 C9 2 9 2 11 4 C7.37 4 3.74 4 0 4 C0 2.68 0 1.36 0 0 Z " fill="#FEA910" transform="translate(35,48)"/>
<path d="M0 0 C1.68496298 0.96885372 3.35178756 1.96986723 5 3 C5 3.33 5 3.66 5 4 C2.03 4 -0.94 4 -4 4 C-2.68 2.68 -1.36 1.36 0 0 Z " fill="#FA4B1B" transform="translate(185,110)"/>
</svg>
