<svg width="24" height="24" viewBox="0 0 24 24" fill="none" xmlns="http://www.w3.org/2000/svg">
<rect width="24" height="24" rx="7.2" fill="black"/>
<g clip-path="url(#clip0_165_35240)">
<path d="M18.2541 10.6819C18.4173 10.1979 18.4738 9.6852 18.4197 9.17802C18.3656 8.67083 18.2022 8.18085 17.9405 7.74081C17.1442 6.37607 15.5438 5.67407 13.9807 6.00394C13.548 5.52996 12.9961 5.17643 12.3807 4.97888C11.7652 4.78132 11.1078 4.74669 10.4745 4.87847C9.84115 5.01024 9.25417 5.30377 8.77251 5.72959C8.29084 6.15541 7.93144 6.69852 7.73041 7.30438C7.22291 7.40684 6.74346 7.61478 6.32412 7.91431C5.90477 8.21383 5.55519 8.59803 5.29873 9.04124C4.49379 10.4038 4.67655 12.1225 5.75058 13.2915C5.58675 13.7752 5.52973 14.2878 5.58332 14.795C5.63692 15.3022 5.7999 15.7923 6.06136 16.2325C6.85865 17.5977 8.46009 18.2997 10.024 17.9693C10.3678 18.3506 10.7903 18.6552 11.2632 18.8629C11.7361 19.0705 12.2486 19.1765 12.7664 19.1736C14.3684 19.175 15.7878 18.1567 16.2771 16.6547C16.7846 16.552 17.2639 16.344 17.6832 16.0445C18.1026 15.745 18.4522 15.3609 18.7088 14.9178C19.504 13.5577 19.3205 11.8483 18.2541 10.6819ZM12.7664 18.2329C12.1269 18.2339 11.5075 18.0132 11.0167 17.6096L11.1031 17.5614L14.0095 15.9095C14.0818 15.8678 14.1419 15.8082 14.1838 15.7367C14.2257 15.6651 14.2479 15.5841 14.2484 15.5015V11.4668L15.4772 12.1666C15.4894 12.1727 15.498 12.1843 15.5002 12.1978V15.5412C15.497 17.0265 14.2749 18.2298 12.7664 18.2329ZM6.89015 15.7622C6.56945 15.217 6.45431 14.5779 6.56497 13.9573L6.65126 14.0083L9.56062 15.6602C9.63261 15.7018 9.71456 15.7237 9.79802 15.7237C9.88149 15.7237 9.96344 15.7018 10.0354 15.6602L13.5894 13.6428V15.0397C13.589 15.0469 13.587 15.054 13.5836 15.0603C13.5801 15.0667 13.5752 15.0722 13.5692 15.0765L10.6254 16.7482C9.31717 17.4903 7.64581 17.049 6.89015 15.7622ZM6.12465 9.52862C6.44757 8.97988 6.95727 8.56134 7.56352 8.3471V11.7472C7.56243 11.8293 7.58374 11.9102 7.62525 11.9815C7.66676 12.0528 7.72693 12.1118 7.79949 12.1524L11.3362 14.1613L10.1074 14.8611C10.1007 14.8646 10.0933 14.8664 10.0858 14.8664C10.0783 14.8664 10.0709 14.8646 10.0642 14.8611L7.12612 13.1923C5.8205 12.4472 5.37275 10.8028 6.12465 9.5145V9.52862ZM16.2196 11.8379L12.6714 9.80914L13.8973 9.11213C13.904 9.10865 13.9114 9.10683 13.9189 9.10683C13.9265 9.10683 13.9339 9.10865 13.9405 9.11213L16.8786 10.7839C17.3279 11.0391 17.6941 11.4149 17.9346 11.8673C18.175 12.3198 18.2798 12.8303 18.2366 13.3392C18.1935 13.8481 18.0042 14.3344 17.6909 14.7414C17.3775 15.1483 16.9531 15.4591 16.4671 15.6375V12.2374C16.4646 12.1554 16.4404 12.0754 16.397 12.0054C16.3536 11.9354 16.2925 11.8776 16.2196 11.8379ZM17.4426 10.0274L17.3562 9.9763L14.4527 8.31027C14.3803 8.26843 14.2978 8.24637 14.2138 8.24637C14.1299 8.24637 14.0474 8.26843 13.975 8.31027L10.4239 10.3277V8.93086C10.4231 8.92375 10.4243 8.91658 10.4274 8.9101C10.4304 8.90362 10.4352 8.89806 10.4412 8.89402L13.3793 7.22512C13.8296 6.9697 14.3444 6.8458 14.8636 6.86792C15.3828 6.89003 15.8849 7.05724 16.3111 7.34999C16.7373 7.64274 17.0701 8.04893 17.2704 8.52105C17.4708 8.99317 17.5305 9.51171 17.4425 10.016V10.0274H17.4426ZM9.75345 12.5037L8.52466 11.8067C8.51852 11.803 8.51327 11.7981 8.50929 11.7922C8.5053 11.7864 8.50268 11.7797 8.5016 11.7727V8.43782C8.50228 7.92623 8.65087 7.4254 8.92998 6.99388C9.20909 6.56237 9.6072 6.21801 10.0778 6.00106C10.5483 5.78411 11.0719 5.70354 11.5872 5.76878C12.1026 5.83401 12.5884 6.04235 12.9879 6.36943L12.9016 6.41761L9.99515 8.06946C9.92282 8.11123 9.86277 8.17082 9.8209 8.24235C9.77903 8.31388 9.75677 8.39491 9.75631 8.47748L9.75345 12.5038V12.5037ZM10.421 11.087L12.0038 10.1888L13.5894 11.087V12.8834L12.0095 13.7816L10.4239 12.8834L10.421 11.087Z" fill="white"/>
</g>
<defs>
<clipPath id="clip0_165_35240">
<rect width="14.4" height="14.4" fill="white" transform="translate(4.8 4.79999)"/>
</clipPath>
</defs>
</svg>
