<?xml version="1.0" encoding="UTF-8"?>
<svg version="1.1" xmlns="http://www.w3.org/2000/svg" width="225" height="225">
<path d="M0 0 C74.25 0 148.5 0 225 0 C225 74.25 225 148.5 225 225 C150.75 225 76.5 225 0 225 C0 150.75 0 76.5 0 0 Z " fill="#FEFEFE" transform="translate(0,0)"/>
<path d="M0 0 C2.05471661 1.81656482 2.05471661 1.81656482 4.953125 3.6640625 C3.31534455 7.86032159 0.21989318 10.65083035 -2.9296875 13.7421875 C-3.50395477 14.31362488 -4.07822205 14.88506226 -4.66989136 15.47381592 C-6.4992331 17.29199195 -8.33541693 19.10307742 -10.171875 20.9140625 C-11.41582274 22.14797579 -12.6593177 23.38234572 -13.90234375 24.6171875 C-16.94529867 27.63812993 -19.99440754 30.65273342 -23.046875 33.6640625 C-26.4671369 32.34456702 -29.21556377 30.95852283 -32.171875 28.7890625 C-37.17162561 25.38391673 -42.2800466 23.41260522 -48.046875 21.6640625 C-48.78679687 21.4371875 -49.52671875 21.2103125 -50.2890625 20.9765625 C-65.21281735 17.04062715 -80.23963957 20.44343407 -93.6171875 27.51953125 C-108.55182262 36.41361723 -117.83628022 50.9443733 -122.86328125 67.32421875 C-126.88758003 84.63151769 -122.1764365 101.79026014 -113.046875 116.6640625 C-102.82984475 130.2992217 -88.08254361 140.21875122 -71.046875 142.6640625 C-61.33558575 143.36608341 -52.34637561 142.8061281 -43.046875 139.6640625 C-42.03882813 139.32375 -41.03078125 138.9834375 -39.9921875 138.6328125 C-28.0217604 134.1248654 -18.18571795 126.18900396 -12.54296875 114.56640625 C-10.71919389 110.29014782 -9.17548709 106.17851085 -8.046875 101.6640625 C-26.196875 101.6640625 -44.346875 101.6640625 -63.046875 101.6640625 C-63.046875 88.7940625 -63.046875 75.9240625 -63.046875 62.6640625 C-31.036875 62.6640625 0.973125 62.6640625 33.953125 62.6640625 C37.62922564 81.04456568 36.42345066 103.10347022 29.953125 120.6640625 C29.55963867 121.74276611 29.55963867 121.74276611 29.15820312 122.84326172 C20.04531468 147.01864025 3.15380111 165.00706581 -20.15625 175.94140625 C-34.34166066 182.34425412 -48.35238734 184.08793603 -63.796875 184.0390625 C-64.50475159 184.037854 -65.21262817 184.03664551 -65.94195557 184.03540039 C-76.46883583 183.98661939 -86.09412051 183.52373635 -96.046875 179.6640625 C-96.7697168 179.38498047 -97.49255859 179.10589844 -98.23730469 178.81835938 C-125.52600717 168.05822637 -146.78739465 148.56246599 -158.859375 121.6640625 C-161.81031013 114.84635662 -163.79050554 107.99932729 -165.046875 100.6640625 C-165.23121094 99.63667969 -165.41554687 98.60929687 -165.60546875 97.55078125 C-168.81580873 69.28274333 -163.65929065 42.23570038 -146.14453125 19.25390625 C-129.69255777 -1.05830681 -108.05125959 -16.80181429 -81.69140625 -20.94140625 C-52.41073354 -23.94063028 -22.91529977 -19.56374232 0 0 Z " fill="#34A853" transform="translate(176.046875,31.3359375)"/>
<path d="M0 0 C2.05471661 1.81656482 2.05471661 1.81656482 4.953125 3.6640625 C3.31534455 7.86032159 0.21989318 10.65083035 -2.9296875 13.7421875 C-3.50395477 14.31362488 -4.07822205 14.88506226 -4.66989136 15.47381592 C-6.4992331 17.29199195 -8.33541693 19.10307742 -10.171875 20.9140625 C-11.41582274 22.14797579 -12.6593177 23.38234572 -13.90234375 24.6171875 C-16.94529867 27.63812993 -19.99440754 30.65273342 -23.046875 33.6640625 C-26.4671369 32.34456702 -29.21556377 30.95852283 -32.171875 28.7890625 C-37.17162561 25.38391673 -42.2800466 23.41260522 -48.046875 21.6640625 C-48.78679687 21.4371875 -49.52671875 21.2103125 -50.2890625 20.9765625 C-65.21281735 17.04062715 -80.23963957 20.44343407 -93.6171875 27.51953125 C-108.55182262 36.41361723 -117.83628022 50.9443733 -122.86328125 67.32421875 C-124.93970653 76.25429949 -124.96877953 85.83062418 -122.484375 94.6640625 C-121.53818873 98.98948546 -121.53818873 98.98948546 -122.046875 101.6640625 C-124.11228378 104.02163922 -126.55555617 105.8386525 -129.046875 107.7265625 C-130.1155481 108.5611499 -130.1155481 108.5611499 -131.20581055 109.41259766 C-132.70883105 110.58108285 -134.21770693 111.7420698 -135.73193359 112.89599609 C-138.02667842 114.6486371 -140.29761105 116.42879198 -142.56640625 118.21484375 C-143.99619483 119.32446593 -145.42714407 120.43259455 -146.859375 121.5390625 C-147.53419922 122.06894775 -148.20902344 122.59883301 -148.90429688 123.14477539 C-150.55981838 124.39931065 -152.29803082 125.54327965 -154.046875 126.6640625 C-157.046875 125.6640625 -157.046875 125.6640625 -158.328125 123.3984375 C-168.84127422 97.6547003 -169.7807859 67.44816594 -159.046875 41.6640625 C-146.86905179 14.21940727 -125.61515455 -5.88376854 -97.7421875 -16.671875 C-65.96448618 -28.26592118 -25.8568496 -22.07506548 0 0 Z " fill="#EA4234" transform="translate(176.046875,31.3359375)"/>
<path d="M0 0 C32.01 0 64.02 0 97 0 C100.67610064 18.38050318 99.47032566 40.43940772 93 58 C92.73767578 58.71913574 92.47535156 59.43827148 92.20507812 60.17919922 C86.8087031 74.49512217 78.54408362 86.02378181 68 97 C63.21778261 93.4367792 58.4715353 89.83066861 53.75 86.1875 C47.5433602 81.39967724 41.28316885 76.68690433 35 72 C36.38735274 68.73232655 37.87344255 67.12298244 40.6875 65 C48.92167859 58.00843382 51.95391033 49.15363224 55 39 C36.85 39 18.7 39 0 39 C0 26.13 0 13.26 0 0 Z " fill="#4184F3" transform="translate(113,94)"/>
<path d="M0 0 C0.4861377 0.36496582 0.97227539 0.72993164 1.47314453 1.10595703 C5.60571792 4.20712261 9.7434705 7.30113718 13.88696289 10.38769531 C15.94808233 11.92967488 17.99951612 13.48400543 20.05078125 15.0390625 C22.43078534 16.84023952 24.82913254 18.58906391 27.29296875 20.2734375 C33.77877798 24.90223788 33.77877798 24.90223788 34.4140625 28.0546875 C34.18062352 30.18783678 33.66277511 31.96128826 33 34 C31.29702511 42.62131037 31.17419467 51.50824773 33.5625 60 C34.50868627 64.32542296 34.50868627 64.32542296 34 67 C31.93459122 69.35757672 29.49131883 71.17459 27 73.0625 C26.28755127 73.6188916 25.57510254 74.1752832 24.84106445 74.74853516 C23.33804395 75.91702035 21.82916807 77.0780073 20.31494141 78.23193359 C18.02019658 79.9845746 15.74926395 81.76472948 13.48046875 83.55078125 C12.05068017 84.66040343 10.61973093 85.76853205 9.1875 86.875 C8.51267578 87.40488525 7.83785156 87.93477051 7.14257812 88.48071289 C5.48705662 89.73524815 3.74884418 90.87921715 2 92 C-1 91 -1 91 -2.28125 88.734375 C-13.40550799 61.49420478 -13.02675518 31.6326584 -2.0078125 4.5625 C-1.35999086 3.03240699 -0.68485105 1.51388127 0 0 Z " fill="#FABB05" transform="translate(20,66)"/>
</svg>
