<?xml version="1.0" encoding="UTF-8"?>
<svg version="1.1" xmlns="http://www.w3.org/2000/svg" width="225" height="225">
<path d="M0 0 C74.25 0 148.5 0 225 0 C225 74.25 225 148.5 225 225 C150.75 225 76.5 225 0 225 C0 150.75 0 76.5 0 0 Z " fill="#FDFDFD" transform="translate(0,0)"/>
<path d="M0 0 C0 4.07277532 -2.08040806 6.13114134 -4.4375 9.25 C-18.02269285 27.80532605 -28.49551138 47.24055768 -26 71 C-25.27568616 75.31472977 -24.39220312 79.59223968 -23.5 83.875 C-18.33262723 108.97598102 -21.52282439 130.78860531 -34.9296875 152.98828125 C-48.00323034 172.00658602 -66.85865232 183.47607615 -89 189 C-113.25569119 192.79675326 -133.27201461 187.69786891 -154 175 C-149.74813207 171.6560171 -145.18952916 169.4777386 -140.3125 167.1875 C-139.45205078 166.75501953 -138.59160156 166.32253906 -137.70507812 165.87695312 C-131.39877541 162.93527914 -127.53906512 162.76541301 -121 165 C-115.9911059 166.4811212 -110.93245193 166.18424878 -105.75 166.1875 C-104.73808594 166.19974609 -103.72617188 166.21199219 -102.68359375 166.22460938 C-85.93708081 166.25719014 -73.05681773 159.541051 -60.8125 148.375 C-49.68485549 136.69897054 -44.41666388 121.44802739 -44.66088867 105.53686523 C-44.95248681 96.93518021 -45.91207432 88.68530029 -50 81 C-52.76160189 78.76824875 -52.76160189 78.76824875 -55.61328125 78.95703125 C-60.60031283 80.4928299 -64.11936112 83.48803098 -68.1875 86.6875 C-69.98111921 88.06595246 -71.77540597 89.44353669 -73.5703125 90.8203125 C-74.4768457 91.5205957 -75.38337891 92.22087891 -76.31738281 92.94238281 C-80.35665379 96.04057864 -84.45646959 99.05367094 -88.5625 102.0625 C-90.12377307 103.21083533 -91.68497075 104.35927317 -93.24609375 105.5078125 C-95.67419539 107.29195032 -98.10277158 109.0754385 -100.53173828 110.85839844 C-102.23758255 112.11075756 -103.94306973 113.36360323 -105.64819336 114.61694336 C-107.23803075 115.78554045 -108.82862333 116.95311122 -110.42016602 118.11938477 C-115.68490442 121.98995213 -120.86014195 125.96521901 -126 130 C-126.66 129.67 -127.32 129.34 -128 129 C-126.88200014 127.66079162 -125.75538103 126.32877444 -124.625 125 C-123.99851562 124.2575 -123.37203125 123.515 -122.7265625 122.75 C-122.15679687 122.1725 -121.58703125 121.595 -121 121 C-120.34 121 -119.68 121 -119 121 C-118.505 119.515 -118.505 119.515 -118 118 C-117.34 118 -116.68 118 -116 118 C-115.64633456 117.15877531 -115.64633456 117.15877531 -115.28552437 116.30055618 C-113.69217774 113.44912565 -111.74551738 111.49992284 -109.43161011 109.19110107 C-108.73075938 108.48768707 -108.73075938 108.48768707 -108.01575005 107.77006269 C-106.45124735 106.20226963 -104.87971104 104.64172509 -103.30810547 103.08105469 C-102.18424246 101.95775589 -101.06081979 100.83401637 -99.93780518 99.70986938 C-96.88876422 96.66025431 -93.83359346 93.6168476 -90.77729559 90.57450771 C-87.58397165 87.39368113 -84.39630564 84.20719484 -81.20803833 81.02130127 C-75.17013988 74.9896205 -69.12716099 68.96305637 -63.08234608 62.938308 C-56.20061807 56.07892998 -49.3245641 49.21387619 -42.44898391 42.3483367 C-28.30563276 28.22589409 -14.15516138 14.11060433 0 0 Z " fill="#020202" transform="translate(221,8)"/>
<path d="M0 0 C1.2669873 0.49693359 1.2669873 0.49693359 2.55957031 1.00390625 C7.81169062 3.16887063 12.12775114 5.71455715 16.625 9.1875 C12.50916618 12.3949361 8.15536367 14.67594384 3.5 17 C2.695625 17.43248047 1.89125 17.86496094 1.0625 18.31054688 C-6.4934277 22.04626512 -11.64524635 20.76408455 -19.375 18.1875 C-38.18181538 16.61429117 -53.93606961 18.63257725 -69.375 30.1875 C-70.15359375 30.75984375 -70.9321875 31.3321875 -71.734375 31.921875 C-83.57313233 41.47452747 -91.05485902 56.29197877 -92.96484375 71.26953125 C-94.64194976 88.28912634 -90.13848745 101.38487117 -80.375 115.1875 C-79.57938318 116.37235705 -78.78716779 117.55951303 -78 118.75 C-77.46375 119.554375 -76.9275 120.35875 -76.375 121.1875 C-80.49849252 125.42696574 -84.73830245 129.44835645 -89.21484375 133.3125 C-93.32170742 136.87722796 -97.33906576 140.54292908 -101.375 144.1875 C-106.65485576 148.95536975 -111.94791806 153.70262218 -117.3125 158.375 C-120.54527205 161.2159209 -123.73252704 164.10701142 -126.92578125 166.9921875 C-129.11799214 168.9571357 -131.33347701 170.88959042 -133.5625 172.8125 C-137.34348935 176.10065163 -140.88242009 179.59669128 -144.375 183.1875 C-145.035 182.8575 -145.695 182.5275 -146.375 182.1875 C-145.49199219 181.24390625 -144.60898438 180.3003125 -143.69921875 179.328125 C-141.19123926 176.64699975 -138.68827773 173.96128005 -136.1875 171.2734375 C-133.91026696 168.82688923 -131.6221741 166.39248161 -129.3125 163.9765625 C-118.49657878 152.58007249 -106.94727857 138.9666686 -107.22265625 122.3828125 C-107.69102714 115.63346794 -109.87524209 109.49353635 -112.375 103.25390625 C-117.81816342 86.56295593 -117.46525239 66.60122939 -111.375 50.1875 C-111.01277344 49.14851563 -110.65054688 48.10953125 -110.27734375 47.0390625 C-102.16428225 25.64258167 -85.40546295 9.71182551 -64.85644531 0.39111328 C-44.25503597 -8.44498518 -20.64790246 -8.11194422 0 0 Z " fill="#020202" transform="translate(147.375,35.8125)"/>
<path d="M0 0 C0 3.29422089 -0.39946588 3.98178525 -2.25 6.5625 C-2.66765625 7.16191406 -3.0853125 7.76132813 -3.515625 8.37890625 C-5 10 -5 10 -6.81119919 10.83477592 C-9.53075537 12.28255149 -11.32838924 14.08272191 -13.50518799 16.26467896 C-14.40258698 17.15932861 -15.29998596 18.05397827 -16.22457886 18.97573853 C-17.21133574 19.96957313 -18.19799634 20.96350334 -19.18457031 21.95751953 C-20.22905236 23.00256583 -21.27397522 24.04717171 -22.31930542 25.09136963 C-25.15405246 27.92554273 -27.98258975 30.76584099 -30.81005955 33.60727167 C-33.76666666 36.57637931 -36.72893659 39.53982604 -39.69061279 42.50387573 C-45.29730308 48.11678277 -50.89887552 53.7347687 -56.49863124 59.35459316 C-62.87434088 65.75265569 -69.25572888 72.14504171 -75.63760233 78.53695512 C-88.76473392 91.68499314 -101.88471069 104.84014971 -115 118 C-115 115 -115 115 -113.20400238 112.83485889 C-111.93192806 111.56693264 -111.93192806 111.56693264 -110.63415527 110.27339172 C-110.16454675 109.80121993 -109.69493823 109.32904813 -109.21109915 108.8425681 C-107.62890498 107.25541557 -106.03619388 105.67925182 -104.44335938 104.1027832 C-103.30972475 102.9699944 -102.17674954 101.83654536 -101.04438782 100.70248413 C-97.96232611 97.61955932 -94.87108145 94.54599146 -91.77815437 91.47397256 C-88.54968446 88.26421696 -85.32967047 85.04600175 -82.10876465 81.82865906 C-76.00549778 75.73472809 -69.89462169 69.64848672 -63.78100157 63.56494445 C-56.82239765 56.63983646 -49.87227881 49.70623961 -42.9228735 42.77190268 C-28.62469633 28.50510955 -14.31585213 14.24905587 0 0 Z M-118 118 C-117.34 118.33 -116.68 118.66 -116 119 C-116.99 119.66 -117.98 120.32 -119 121 C-118.67 120.01 -118.34 119.02 -118 118 Z M-121 121 C-120.01 121.495 -120.01 121.495 -119 122 C-119.99 122.495 -119.99 122.495 -121 123 C-121 122.34 -121 121.68 -121 121 Z M-123 124 C-122.34 124.66 -121.68 125.32 -121 126 C-122.65 127.32 -124.3 128.64 -126 130 C-126.66 129.67 -127.32 129.34 -128 129 C-126.35 127.35 -124.7 125.7 -123 124 Z " fill="#2C2C2C" transform="translate(221,8)"/>
</svg>
