<?xml version="1.0" encoding="UTF-8"?>
<svg version="1.1" xmlns="http://www.w3.org/2000/svg" width="175" height="148">
<path d="M0 0 C57.75 0 115.5 0 175 0 C175 48.84 175 97.68 175 148 C117.25 148 59.5 148 0 148 C0 99.16 0 50.32 0 0 Z " fill="#FDFDFD" transform="translate(0,0)"/>
<path d="M0 0 C2.5281818 1.22331377 3.01456859 2.32252767 3.9375 4.9375 C3.9375 5.9275 3.9375 6.9175 3.9375 7.9375 C4.5975 7.6075 5.2575 7.2775 5.9375 6.9375 C9.61079964 6.80392547 12.43602959 6.7703432 15.9375 7.9375 C16.06125 6.98875 16.185 6.04 16.3125 5.0625 C16.9375 1.9375 16.9375 1.9375 18.9375 -0.0625 C20.2575 -0.0625 21.5775 -0.0625 22.9375 -0.0625 C25.12854463 3.22406694 25.17484921 4.42224914 25.3125 8.25 C25.58102831 12.2004646 25.71781771 13.6273603 28.0625 16.9375 C30.50930055 20.85238088 29.91440077 22.85439642 29.30078125 27.3046875 C28.80613728 32.25112722 28.84672163 37.15757182 28.875 42.125 C28.87918945 43.082854 28.88337891 44.04070801 28.88769531 45.02758789 C28.90017854 47.33095073 28.9166513 49.63419997 28.9375 51.9375 C27.9475 51.9375 26.9575 51.9375 25.9375 51.9375 C23.55452128 30.70345745 23.55452128 30.70345745 25.9375 25.9375 C26.21913537 22.69869319 26.24559145 20.57079909 24.8125 17.625 C22.32152646 15.38312381 20.20388973 15.47078812 16.9375 14.9375 C16.298125 14.256875 15.65875 13.57625 15 12.875 C12.96756192 10.59254137 12.96756192 10.59254137 9.375 10.4375 C5.90313661 10.54302352 5.90313661 10.54302352 4.4375 12.8125 C3.9425 13.51375 3.4475 14.215 2.9375 14.9375 C0.61201993 15.63106423 -1.72130445 16.29899212 -4.0625 16.9375 C-6.40019735 20.44404602 -6.30965017 21.81833042 -6.0625 25.9375 C-5.8975 26.68 -5.7325 27.4225 -5.5625 28.1875 C-4.92386249 31.7000063 -5.0384071 35.0716793 -5.125 38.6328125 C-5.16972483 41.09981552 -5.16972483 41.09981552 -4.0625 43.9375 C-4.51798177 46.67562607 -5.31564753 49.2576176 -6.0625 51.9375 C-7.0525 51.9375 -8.0425 51.9375 -9.0625 51.9375 C-9.05726318 51.22094238 -9.05202637 50.50438477 -9.04663086 49.76611328 C-9.02589333 46.53158438 -9.01285016 43.29706944 -9 40.0625 C-8.99162109 38.93457031 -8.98324219 37.80664062 -8.97460938 36.64453125 C-8.97138672 35.56816406 -8.96816406 34.49179688 -8.96484375 33.3828125 C-8.95960693 32.38781738 -8.95437012 31.39282227 -8.94897461 30.36767578 C-8.8985585 27.92789227 -8.8985585 27.92789227 -10.0625 25.9375 C-10.50037713 22.08418126 -10.42829721 20.44489614 -8.125 17.25 C-5.58393099 13.16888917 -5.54466191 10.1494446 -5.43359375 5.42578125 C-5.0625 2.9375 -5.0625 2.9375 -3.6640625 1.1015625 C-2.0625 -0.0625 -2.0625 -0.0625 0 0 Z " fill="#1F1F1F" transform="translate(20.0625,50.0625)"/>
<path d="M0 0 C3.33152871 4.99729307 3.95612989 11.08654447 3 17 C1.28877683 20.07126248 -0.81018817 22.40509409 -4 24 C-8.23660902 24.43281664 -11.91394711 24.44858706 -15.875 22.8125 C-19.20895882 19.96882924 -20.76396252 17.88542135 -21.3203125 13.44140625 C-21.50943464 8.79530556 -21.32462086 5.6853107 -19.3125 1.4375 C-13.57070698 -4.61466021 -6.84297424 -4.19909783 0 0 Z M-15.5 2.9375 C-17.52220894 7.06617659 -17.70403573 10.481073 -17 15 C-15.8410416 17.41869578 -14.87677904 19.12322096 -13 21 C-8.84339162 21.47960866 -6.65972363 21.40706352 -3.0625 19.1875 C-0.0536874 14.53751689 -0.12928585 10.39013519 -1 5 C-2.27517874 2.14001655 -2.27517874 2.14001655 -5 1 C-9.26774552 0.10797122 -12.00664848 0.23015257 -15.5 2.9375 Z " fill="#111111" transform="translate(81,78)"/>
<path d="M0 0 C0.99 0 1.98 0 3 0 C3.33 0.66 3.66 1.32 4 2 C4.66 1.34 5.32 0.68 6 0 C10.05261287 -0.34490322 11.54754176 -0.30163882 15 2 C15.66 1.34 16.32 0.68 17 0 C23.06410256 -0.55128205 23.06410256 -0.55128205 25.7109375 1.0078125 C27.76224807 4.17801974 27.31157309 7.54484139 27.1875 11.1875 C27.16719727 12.31188477 27.16719727 12.31188477 27.14648438 13.45898438 C27.11118539 15.30629767 27.05737917 17.15324066 27 19 C25.68 19 24.36 19 23 19 C22.67 13.72 22.34 8.44 22 3 C20.02 3 18.04 3 16 3 C15.67 8.28 15.34 13.56 15 19 C13.68 19 12.36 19 11 19 C10.67 14.05 10.34 9.1 10 4 C8.35 4 6.7 4 5 4 C4.67 8.62 4.34 13.24 4 18 C2.68 18.33 1.36 18.66 0 19 C0 12.73 0 6.46 0 0 Z " fill="#141414" transform="translate(121,83)"/>
<path d="M0 0 C0.78503906 0.00515625 1.57007812 0.0103125 2.37890625 0.015625 C3.55259766 0.00789063 3.55259766 0.00789063 4.75 0 C6.94140625 0.265625 6.94140625 0.265625 9.94140625 2.265625 C10.16226265 5.21626648 10.22201614 7.94930731 10.12890625 10.890625 C10.10860352 12.09332031 10.10860352 12.09332031 10.08789062 13.3203125 C10.05249676 15.30236878 9.99868859 17.28408051 9.94140625 19.265625 C8.95140625 19.265625 7.96140625 19.265625 6.94140625 19.265625 C6.61140625 18.605625 6.28140625 17.945625 5.94140625 17.265625 C4.95140625 17.925625 3.96140625 18.585625 2.94140625 19.265625 C-0.21273126 19.59418099 -2.21382721 19.80064381 -4.93359375 18.078125 C-6.46518959 15.61055392 -6.486814 14.12042669 -6.05859375 11.265625 C-4.859375 9.62109375 -4.859375 9.62109375 -3.05859375 8.265625 C-0.578125 7.97265625 -0.578125 7.97265625 2.12890625 8.078125 C3.48048828 8.11873047 3.48048828 8.11873047 4.859375 8.16015625 C5.54644531 8.19496094 6.23351562 8.22976562 6.94140625 8.265625 C6.94140625 6.945625 6.94140625 5.625625 6.94140625 4.265625 C1.14396395 4.02134157 1.14396395 4.02134157 -4.05859375 6.265625 C-4.05859375 0.52368952 -4.05859375 0.52368952 0 0 Z " fill="#212121" transform="translate(107.05859375,82.734375)"/>
<path d="M0 0 C0.7734375 -0.00515625 1.546875 -0.0103125 2.34375 -0.015625 C4.5 0.25 4.5 0.25 7.5 2.25 C7.7208564 5.20064148 7.78060989 7.93368231 7.6875 10.875 C7.66719727 12.07769531 7.66719727 12.07769531 7.64648438 13.3046875 C7.61109051 15.28674378 7.55728234 17.26845551 7.5 19.25 C6.51 19.25 5.52 19.25 4.5 19.25 C4.17 18.59 3.84 17.93 3.5 17.25 C2.51 17.91 1.52 18.57 0.5 19.25 C-2.65413751 19.57855599 -4.65523346 19.78501881 -7.375 18.0625 C-8.90659584 15.59492892 -8.92822025 14.10480169 -8.5 11.25 C-7.30078125 9.60546875 -7.30078125 9.60546875 -5.5 8.25 C-3.01953125 7.95703125 -3.01953125 7.95703125 -0.3125 8.0625 C1.03908203 8.10310547 1.03908203 8.10310547 2.41796875 8.14453125 C3.10503906 8.17933594 3.79210937 8.21414062 4.5 8.25 C4.17 6.93 3.84 5.61 3.5 4.25 C1.19 3.92 -1.12 3.59 -3.5 3.25 C-3.83 4.24 -4.16 5.23 -4.5 6.25 C-5.49 5.92 -6.48 5.59 -7.5 5.25 C-7.5 4.26 -7.5 3.27 -7.5 2.25 C-4.377998 0.16866533 -3.56733011 -0.0237822 0 0 Z " fill="#1B1B1B" transform="translate(158.5,82.75)"/>
<path d="M0 0 C2 1.5 2 1.5 3 3 C3.33 2.34 3.66 1.68 4 1 C5.32 1 6.64 1 8 1 C7.67 2.32 7.34 3.64 7 5 C6.34 5 5.68 5 5 5 C4.896875 5.598125 4.79375 6.19625 4.6875 6.8125 C3.87313874 9.40364946 3.13035419 10.33051714 1 12 C-1.375 12.3984375 -1.375 12.3984375 -4 12.375 C-4.86625 12.38273437 -5.7325 12.39046875 -6.625 12.3984375 C-9 12 -9 12 -10.8203125 10.6640625 C-12 9 -12 9 -11.875 6 C-9.99476433 -0.44652228 -6.24860842 -1.01539887 0 0 Z " fill="#171717" transform="translate(34,72)"/>
<path d="M0 0 C3.875 0.875 3.875 0.875 5 2 C5.13241142 3.72723342 5.23076852 5.45712778 5.3125 7.1875 C5.6130344 11.15557278 5.77440228 12.6815091 8.125 16 C10.57180055 19.91488088 9.97690077 21.91689642 9.36328125 26.3671875 C8.86863728 31.31362722 8.90922163 36.22007182 8.9375 41.1875 C8.94168945 42.145354 8.94587891 43.10320801 8.95019531 44.09008789 C8.96267854 46.39345073 8.9791513 48.69669997 9 51 C8.01 51 7.02 51 6 51 C3.61702128 29.76595745 3.61702128 29.76595745 6 25 C6.41081422 21.98736238 6.57293414 19.88544367 4.8828125 17.2734375 C3.64587643 15.79889789 2.32734487 14.39371212 1 13 C1.33 12.67 1.66 12.34 2 12 C2.07226502 10.14712498 2.0838122 8.29166122 2.0625 6.4375 C2.05347656 5.42558594 2.04445312 4.41367187 2.03515625 3.37109375 C2.02355469 2.58863281 2.01195312 1.80617187 2 1 C1.34 0.67 0.68 0.34 0 0 Z " fill="#121212" transform="translate(40,51)"/>
<path d="M0 0 C2.125 0.375 2.125 0.375 4 1 C4 2.32 4 3.64 4 5 C4.02320312 5.68320312 4.04640625 6.36640625 4.0703125 7.0703125 C4.1229057 9.04631417 4.06373141 11.02432621 4 13 C3.34 13.66 2.68 14.32 2 15 C0.68 15 -0.64 15 -2 15 C-2.61875 14.360625 -3.2375 13.72125 -3.875 13.0625 C-6.51893567 10.49632715 -8.39814072 10.32744175 -12 10 C-12.33 9.01 -12.66 8.02 -13 7 C-6.375 6.875 -6.375 6.875 -3 8 C-2.87625 7.05125 -2.7525 6.1025 -2.625 5.125 C-2 2 -2 2 0 0 Z " fill="#252525" transform="translate(39,50)"/>
<path d="M0 0 C1.0765283 3.22958491 1 5.61619998 1 9 C1.165 9.7425 1.33 10.485 1.5 11.25 C2.13863751 14.7625063 2.0240929 18.1341793 1.9375 21.6953125 C1.89277517 24.16231552 1.89277517 24.16231552 3 27 C2.54451823 29.73812607 1.74685247 32.3201176 1 35 C0.01 35 -0.98 35 -2 35 C-1.99476318 34.28344238 -1.98952637 33.56688477 -1.98413086 32.82861328 C-1.96339333 29.59408438 -1.95035016 26.35956944 -1.9375 23.125 C-1.92912109 21.99707031 -1.92074219 20.86914062 -1.91210938 19.70703125 C-1.90888672 18.63066406 -1.90566406 17.55429688 -1.90234375 16.4453125 C-1.89710693 15.45031738 -1.89187012 14.45532227 -1.88647461 13.43017578 C-1.8360585 10.99039227 -1.8360585 10.99039227 -3 9 C-3.46153846 3.57692308 -3.46153846 3.57692308 -1.5 1.125 C-1.005 0.75375 -0.51 0.3825 0 0 Z " fill="#1E1E1E" transform="translate(13,67)"/>
<path d="M0 0 C0.78503906 0.00515625 1.57007812 0.0103125 2.37890625 0.015625 C3.55259766 0.00789063 3.55259766 0.00789063 4.75 0 C6.94140625 0.265625 6.94140625 0.265625 9.94140625 2.265625 C10.16226265 5.21626648 10.22201614 7.94930731 10.12890625 10.890625 C10.11537109 11.69242188 10.10183594 12.49421875 10.08789062 13.3203125 C10.05249676 15.30236878 9.99868859 17.28408051 9.94140625 19.265625 C8.95140625 19.265625 7.96140625 19.265625 6.94140625 19.265625 C6.09686269 15.88745075 5.83295706 13.59097257 6.94140625 10.265625 C5.62140625 9.935625 4.30140625 9.605625 2.94140625 9.265625 C4.26140625 8.935625 5.58140625 8.605625 6.94140625 8.265625 C6.94140625 6.945625 6.94140625 5.625625 6.94140625 4.265625 C1.14396395 4.02134157 1.14396395 4.02134157 -4.05859375 6.265625 C-4.05859375 0.52368952 -4.05859375 0.52368952 0 0 Z " fill="#040404" transform="translate(107.05859375,82.734375)"/>
<path d="M0 0 C2.72869407 0.03287583 5.2966618 0.56397771 8 1 C8.33 2.98 8.66 4.96 9 7 C5.53001271 9.31332486 4.07490752 9.33957563 0 9 C-0.99 8.34 -1.98 7.68 -3 7 C-2.25 2.25 -2.25 2.25 0 0 Z " fill="#C4C4C4" transform="translate(27,74)"/>
<path d="M0 0 C2.625 0.25 2.625 0.25 4.27734375 1.25390625 C6.40833674 4.41024658 5.93737729 7.77123074 5.8125 11.4375 C5.79896484 12.18708984 5.78542969 12.93667969 5.77148438 13.70898438 C5.73618539 15.55629767 5.68237917 17.40324066 5.625 19.25 C4.305 19.25 2.985 19.25 1.625 19.25 C1.56441406 18.26257813 1.50382813 17.27515625 1.44140625 16.2578125 C1.35761719 14.97648437 1.27382812 13.69515625 1.1875 12.375 C1.06568359 10.46074219 1.06568359 10.46074219 0.94140625 8.5078125 C0.83293973 5.36699848 0.83293973 5.36699848 -0.375 3.25 C-1.365 2.59 -2.355 1.93 -3.375 1.25 C-2.375 0.25 -2.375 0.25 0 0 Z " fill="#1B1B1B" transform="translate(142.375,82.75)"/>
<path d="M0 0 C0.99 0 1.98 0 3 0 C3 8.91 3 17.82 3 27 C2.01 27 1.02 27 0 27 C0 18.09 0 9.18 0 0 Z " fill="#0E0E0E" transform="translate(88,75)"/>
<path d="M0 0 C0.66 0 1.32 0 2 0 C2 8.91 2 17.82 2 27 C1.01 27 0.02 27 -1 27 C-1.02886537 22.68751391 -1.04675255 18.37505238 -1.0625 14.0625 C-1.07087891 12.83080078 -1.07925781 11.59910156 -1.08789062 10.33007812 C-1.09111328 9.16025391 -1.09433594 7.99042969 -1.09765625 6.78515625 C-1.10289307 5.70113525 -1.10812988 4.61711426 -1.11352539 3.50024414 C-1 1 -1 1 0 0 Z " fill="#040404" transform="translate(96,75)"/>
<path d="M0 0 C2.10407096 1.69636171 2.93240678 2.54981464 3.34057617 5.26831055 C3.32486572 6.13238525 3.30915527 6.99645996 3.29296875 7.88671875 C3.28330078 8.82451172 3.27363281 9.76230469 3.26367188 10.72851562 C3.23853516 11.70498047 3.21339844 12.68144531 3.1875 13.6875 C3.17396484 14.67556641 3.16042969 15.66363281 3.14648438 16.68164062 C3.11112203 19.12164231 3.06177033 21.56054719 3 24 C2.01 24 1.02 24 0 24 C-0.84262613 16.35617729 -1.43737294 8.69261815 -1 1 C-0.67 0.67 -0.34 0.34 0 0 Z " fill="#1D1D1D" transform="translate(46,78)"/>
<path d="M0 0 C0.33 0 0.66 0 1 0 C1 8.58 1 17.16 1 26 C-2.21085064 21.18372404 -3.27358468 18.10692206 -3.625 12.25 C-3.69976562 11.07953125 -3.77453125 9.9090625 -3.8515625 8.703125 C-3.90054688 7.81109375 -3.94953125 6.9190625 -4 6 C-3.01 7.485 -3.01 7.485 -2 9 C-1.34 6.03 -0.68 3.06 0 0 Z " fill="#B4B4B4" transform="translate(87,76)"/>
<path d="M0 0 C-1.25541557 2.51083114 -2.50063488 2.87125446 -5 4 C-5 5.65 -5 7.3 -5 9 C-3.35 9 -1.7 9 0 9 C-0.33 9.66 -0.66 10.32 -1 11 C-6.42857143 11.36190476 -6.42857143 11.36190476 -8.875 9.8125 C-10.40659584 7.34492892 -10.42822025 5.85480169 -10 3 C-7.65127184 -1.00665392 -4.23309225 -0.239609 0 0 Z " fill="#141414" transform="translate(160,91)"/>
<path d="M0 0 C1.9375 0.125 1.9375 0.125 4 1 C5.25 3.5625 5.25 3.5625 6 6 C5.34 6 4.68 6 4 6 C4 7.98 4 9.96 4 12 C2.68 12 1.36 12 0 12 C-0.33 9.36 -0.66 6.72 -1 4 C-1.99 4.495 -1.99 4.495 -3 5 C-1.125 1.125 -1.125 1.125 0 0 Z " fill="#313131" transform="translate(18,50)"/>
<path d="M0 0 C1.670625 0.061875 1.670625 0.061875 3.375 0.125 C3.045 1.775 2.715 3.425 2.375 5.125 C0.065 5.455 -2.245 5.785 -4.625 6.125 C-5.25 4.25 -5.25 4.25 -5.625 2.125 C-3.625 0.125 -3.625 0.125 0 0 Z " fill="#DADADA" transform="translate(110.625,92.875)"/>
<path d="M0 0 C0 0.66 0 1.32 0 2 C-1.32 2 -2.64 2 -4 2 C-3.34 3.98 -2.68 5.96 -2 8 C-3.65 8 -5.3 8 -7 8 C-7.6875 5.6875 -7.6875 5.6875 -8 3 C-5.90994325 -0.36731366 -3.75103888 -0.30413829 0 0 Z " fill="#EFEFEF" transform="translate(32,74)"/>
<path d="M0 0 C1.134375 0.020625 2.26875 0.04125 3.4375 0.0625 C3.4375 1.3825 3.4375 2.7025 3.4375 4.0625 C1.1275 4.3925 -1.1825 4.7225 -3.5625 5.0625 C-4.125 3.125 -4.125 3.125 -4.5625 1.0625 C-3.5625 0.0625 -3.5625 0.0625 0 0 Z " fill="#F3F3F3" transform="translate(158.5625,93.9375)"/>
<path d="M0 0 C0.66 0 1.32 0 2 0 C3.4783226 2.95664519 3.06032783 5.74229737 3 9 C1.68 9 0.36 9 -1 9 C-1.125 2.25 -1.125 2.25 0 0 Z " fill="#D4D4D4" transform="translate(40,53)"/>
<path d="M0 0 C0.99 0.33 1.98 0.66 3 1 C4.66362417 1.34820041 6.32995171 1.68404492 8 2 C7.67 2.66 7.34 3.32 7 4 C6.2575 3.95875 5.515 3.9175 4.75 3.875 C1.91241048 4.00398134 0.41226062 4.57051222 -2 6 C-2 2 -2 2 0 0 Z " fill="#2C2C2C" transform="translate(105,83)"/>
<path d="M0 0 C0.66 0 1.32 0 2 0 C2 0.66 2 1.32 2 2 C2.99 2 3.98 2 5 2 C3.84826645 4.46800047 2.95216435 6.04783565 1 8 C0.01 7.67 -0.98 7.34 -2 7 C-1.34 4.69 -0.68 2.38 0 0 Z " fill="#060606" transform="translate(22,56)"/>
<path d="M0 0 C0.66 0.33 1.32 0.66 2 1 C2 3.64 2 6.28 2 9 C1.01 9 0.02 9 -1 9 C-1.09765625 2.84765625 -1.09765625 2.84765625 -1 1 C-0.67 0.67 -0.34 0.34 0 0 Z " fill="#EDEDED" transform="translate(19,53)"/>
<path d="M0 0 C0 0.33 0 0.66 0 1 C-2.31 1 -4.62 1 -7 1 C-7.4021875 1.86625 -7.4021875 1.86625 -7.8125 2.75 C-9.01719859 5.0325868 -10.40798115 6.9737942 -12 9 C-11.67815583 6.10340247 -11.38591512 3.68102669 -9.9375 1.125 C-6.73943927 -0.73193849 -3.64481003 -0.17925295 0 0 Z " fill="#454545" transform="translate(34,72)"/>
<path d="M0 0 C0.33 0 0.66 0 1 0 C1 2.64 1 5.28 1 8 C0.01 8 -0.98 8 -2 8 C-1.125 1.125 -1.125 1.125 0 0 Z " fill="#070707" transform="translate(13,94)"/>
<path d="M0 0 C1.32 0 2.64 0 4 0 C3.67 1.32 3.34 2.64 3 4 C2.34 4 1.68 4 1 4 C0.67 4.99 0.34 5.98 0 7 C0 4.69 0 2.38 0 0 Z " fill="#656565" transform="translate(38,73)"/>
</svg>
