<?xml version="1.0" standalone="no"?>
<!DOCTYPE svg PUBLIC "-//W3C//DTD SVG 20010904//EN"
 "http://www.w3.org/TR/2001/REC-SVG-20010904/DTD/svg10.dtd">
<svg version="1.0" xmlns="http://www.w3.org/2000/svg"
 width="270.000000pt" height="187.000000pt" viewBox="0 0 270.000000 187.000000"
 preserveAspectRatio="xMidYMid meet">

<g transform="translate(0.000000,187.000000) scale(0.100000,-0.100000)"
fill="#000000" stroke="none">
<path d="M1245 1859 c-58 -14 -109 -53 -139 -109 -20 -37 -34 -50 -57 -55 -41
-9 -108 -70 -130 -120 -27 -59 -24 -131 7 -191 21 -40 25 -62 24 -117 -2 -116
61 -200 172 -228 27 -6 60 -9 75 -6 20 4 36 -3 63 -24 85 -68 205 -65 290 8
21 18 44 49 51 67 9 26 21 36 48 45 50 15 105 63 130 114 34 70 24 180 -22
235 -7 9 -11 38 -8 77 6 136 -86 235 -219 235 -40 0 -59 6 -85 26 -34 25 -114
55 -144 53 -9 -1 -34 -5 -56 -10z m137 -75 c15 -8 28 -18 28 -22 0 -4 -45 -32
-100 -62 l-99 -55 -1 -128 0 -127 -40 20 -40 20 0 121 c0 89 4 130 16 154 43
91 146 125 236 79z m229 -77 c48 -32 79 -83 79 -128 0 -22 -5 -39 -11 -39 -7
0 -51 23 -99 50 -48 28 -94 50 -103 50 -8 0 -55 -23 -104 -51 -48 -28 -96 -55
-105 -60 -16 -9 -18 -5 -18 35 l0 45 108 60 c95 54 113 61 163 61 42 0 65 -6
90 -23z m-531 -186 l0 -119 112 -62 112 -63 -35 -17 c-19 -10 -37 -20 -40 -21
-10 -7 -195 100 -222 129 -68 72 -59 192 20 251 50 37 53 32 53 -98z m483 22
c119 -67 135 -80 157 -123 36 -71 20 -153 -39 -203 -56 -47 -60 -41 -63 91
l-3 117 -108 61 -108 61 33 21 c18 11 37 21 41 21 4 1 45 -20 90 -46z m-163
-52 c43 -26 45 -30 48 -79 l3 -51 -51 -26 -51 -26 -50 27 -50 28 3 50 c3 47 5
51 48 77 25 15 47 27 50 27 3 0 25 -12 50 -27z m135 -78 l35 -17 0 -123 c0
-134 -6 -157 -57 -205 -33 -31 -72 -48 -113 -48 -39 0 -112 30 -107 43 2 6 47
35 100 65 l97 55 0 123 c0 68 2 124 5 124 2 0 20 -8 40 -17z m-85 -156 l0 -42
-107 -60 c-96 -53 -114 -60 -164 -60 -66 0 -116 29 -148 86 -20 35 -29 109
-14 109 4 0 50 -25 104 -55 53 -30 99 -55 102 -55 2 0 51 27 108 59 57 33 107
60 112 60 4 1 7 -18 7 -42z"/>
<path d="M149 676 c-58 -21 -96 -53 -121 -104 -20 -41 -23 -62 -23 -157 0 -95
3 -116 24 -158 43 -87 149 -132 259 -109 76 16 125 50 153 109 21 42 24 62 24
163 0 104 -2 119 -25 160 -52 93 -181 135 -291 96z m161 -81 c50 -26 65 -67
65 -180 0 -86 -3 -105 -22 -136 -27 -43 -59 -59 -119 -59 -102 0 -134 49 -134
202 0 111 13 147 62 174 32 18 113 17 148 -1z"/>
<path d="M2019 653 c-6 -16 -46 -128 -90 -250 -44 -123 -82 -230 -85 -238 -5
-12 3 -15 39 -15 l45 0 20 58 19 57 109 0 109 0 20 -58 20 -57 42 0 c24 0 43
3 43 8 0 4 -41 123 -91 265 l-92 257 -49 0 c-44 0 -50 -3 -59 -27z m104 -184
c21 -64 37 -119 37 -123 0 -3 -38 -6 -85 -6 l-84 0 13 43 c52 169 70 217 76
210 4 -4 23 -60 43 -124z"/>
<path d="M2380 645 l0 -35 55 0 55 0 0 -195 0 -195 -55 0 -55 0 0 -35 0 -35
160 0 160 0 0 35 0 34 -57 3 -58 3 0 190 0 190 58 3 57 3 0 34 0 35 -160 0
-160 0 0 -35z"/>
<path d="M704 536 c-17 -8 -39 -24 -48 -37 l-16 -23 0 32 c0 31 -1 32 -45 32
l-45 0 0 -260 0 -260 45 0 45 0 0 90 c0 50 2 90 5 90 3 0 14 -9 24 -19 32 -32
90 -45 140 -31 88 23 127 98 119 222 -8 109 -57 168 -145 175 -28 2 -61 -3
-79 -11z m86 -71 c58 -30 69 -171 17 -223 -33 -33 -94 -37 -126 -8 -43 39 -51
149 -15 204 27 41 76 52 124 27z"/>
<path d="M1090 528 c-74 -38 -85 -63 -85 -183 0 -90 3 -107 21 -132 35 -46 80
-67 148 -67 63 0 95 11 134 47 28 26 28 35 -2 48 -20 9 -30 8 -53 -8 -67 -47
-142 -33 -163 31 -6 20 -9 40 -5 46 4 6 59 10 137 10 l131 0 -7 62 c-3 33 -14
75 -24 92 -22 39 -94 76 -147 76 -23 0 -60 -10 -85 -22z m145 -63 c16 -15 25
-36 25 -55 l0 -30 -90 0 c-55 0 -90 4 -90 10 0 23 29 79 47 89 33 19 82 13
108 -14z"/>
<path d="M1570 539 c-14 -5 -36 -22 -48 -37 l-24 -27 4 33 c5 32 4 32 -39 32
l-43 0 0 -195 0 -195 45 0 45 0 0 135 c0 131 1 137 25 160 26 26 72 33 105 15
29 -16 40 -66 40 -191 l0 -119 46 0 46 0 -4 152 c-3 129 -6 158 -23 185 -32
55 -109 77 -175 52z"/>
</g>
</svg>
