<svg width="24" height="24" viewBox="0 0 24 24" fill="none" xmlns="http://www.w3.org/2000/svg">
<rect width="24" height="24" rx="7.2" fill="black"/>
<g clip-path="url(#clip0_742_4767)">
<path fill-rule="evenodd" clip-rule="evenodd" d="M10.0591 13.974L14.8459 10.4358C15.0805 10.2618 15.4159 10.3296 15.5281 10.599C16.1161 12.0204 15.8533 13.728 14.6821 14.9004C13.5115 16.0728 11.8819 16.3296 10.3927 15.744L8.76613 16.4982C11.0995 18.0948 13.9327 17.7 15.7033 15.9264C17.1079 14.52 17.5429 12.603 17.1361 10.8744L17.1397 10.8786C16.5499 8.33941 17.2849 7.32421 18.7897 5.24881C18.8257 5.19961 18.8617 5.15041 18.8971 5.10001L16.9165 7.08301V7.07701L10.0573 13.9752M9.07093 14.8338C7.39573 13.2318 7.68493 10.7532 9.11353 9.32341C10.1701 8.26561 11.9017 7.83361 13.4131 8.46841L15.0361 7.71841C14.6988 7.47026 14.3297 7.26846 13.9387 7.11841C12.9558 6.7161 11.8759 6.61344 10.8347 6.82333C9.79362 7.03322 8.83781 7.54629 8.08753 8.29801C6.56773 9.81961 6.08953 12.1596 6.91033 14.1564C7.52353 15.6486 6.51853 16.704 5.50633 17.7696C5.14693 18.1476 4.78693 18.525 4.49713 18.9246L9.06913 14.8356" fill="white"/>
</g>
<defs>
<clipPath id="clip0_742_4767">
<rect width="14.4" height="14.4" fill="white" transform="translate(4.49713 4.79999)"/>
</clipPath>
</defs>
</svg>
