<svg width="24" height="24" viewBox="0 0 24 24" fill="none" xmlns="http://www.w3.org/2000/svg">
<rect width="24" height="24" rx="7.2" fill="#20808D"/>
<path fill-rule="evenodd" clip-rule="evenodd" d="M7.50794 4.79999L11.5912 8.57794V8.57707V4.80871H12.386V8.59484L16.4875 4.79999V9.10741H18.1714V15.3205H16.4927V19.156L12.386 15.5328V19.1976H11.5912V15.5925L7.51257 19.2V15.3205H5.82858V9.10741H7.50794V4.79999ZM10.9919 9.89586H6.62342V14.532H7.51157V13.0696L10.9919 9.89586ZM8.30736 13.4194V17.4406L11.5912 14.5362V10.4242L8.30736 13.4194ZM12.4089 14.4977V10.4204L15.6936 13.4157V15.3205H15.6978V17.3996L12.4089 14.4977ZM16.4927 14.532H17.3766V9.89586H13.0406L16.4927 13.0367V14.532ZM15.6927 9.10741V6.61358L12.9973 9.10741H15.6927ZM10.9981 9.10741H8.30278V6.61358L10.9981 9.10741Z" fill="white"/>
</svg>
