<?xml version="1.0" encoding="utf-8"?>
<!-- Generator: Adobe Illustrator 25.4.1, SVG Export Plug-In . SVG Version: 6.00 Build 0)  -->
<svg version="1.1" id="Layer_1" xmlns="http://www.w3.org/2000/svg" xmlns:xlink="http://www.w3.org/1999/xlink" x="0px" y="0px"
	 viewBox="0 0 838.4 284.5" style="enable-background:new 0 0 838.4 284.5;" xml:space="preserve">
<style type="text/css">
	.st0{fill:#FFFFFF;}
</style>
<g>
	<path class="st0" d="M829.6,206.4c-3.6-33.1-24.8-68.2-45.4-90.1c-11.5-12.2-24.7-22.4-37-33.7c-16.4-15.2-28-33.3-34-54.9
		c-1.3-4.5-2.5-9-4-14.3c-9.3,11.3-17.9,22-20.7,36.1c-0.5,2.5-1.1,3.3-3.8,2.5c-15.9-4.8-32.3-7.3-48.9-8.1
		c-44.1-2-85,7.9-122.1,32.3c-6.4,4.2-13,8.4-18.3,14.2c0,0.4-0.1,0.9,0.1,1.1c8,8.5,16.1,16.9,24.1,25.4c0.9,0.9,1.7,1,2.7,0.1
		c6.7-6.4,15.1-9.5,23.9-11.3c6-1.3,12.1-2.8,19.5-2.1c-1.6,0.8-2.2,1.2-2.9,1.4c-10.4,3.8-19.5,9.6-28.2,16.2
		c-3.7,2.8-3.7,3.9-0.3,6.9c1.2,1,2.5,1.9,3.9,2.7c6.6,3.9,13.8,6.3,21.1,8.5c16,4.7,32.4,7.7,48.8,10.3c2.5,0.4,3,1.1,2.2,3.5
		c-2.4,7.7-3,15.7-2.8,23.7c0.4,15.7,3.9,30.9,8.9,45.8c1.9,5.8,3.9,11.5,7.1,16.9c-0.1-7.7,1.6-14.8,4.4-21.8
		c9.4-24.1,24.1-45,39.4-65.6c1.2-1.6,2.7-1.7,4.5-1.8c50.2-3.1,101.2,19.5,132.3,58.9c14.7,18.6,15.4,41.8-2.1,61.1
		C825.4,254,832.2,230.7,829.6,206.4z M562.6,78.5c-2.3,0-3.9-1.5-3.9-3.9c0.1-2.3,1.6-3.6,3.8-3.6c2.3,0,3.5,1.5,3.7,3.8
		C565.9,76.9,564.8,78.5,562.6,78.5z"/>
	<g>
		<path class="st0" d="M607.5,272.9c-0.1,0-0.3,0-0.4,0C607.3,272.9,607.4,272.9,607.5,272.9c3.5,0,5.4,0,6.6-0.6
			C613,272.9,611,272.9,607.5,272.9z"/>
		<path class="st0" d="M417.5,273.1c-5.9-0.2-7.2-0.3-7.1-3.5C410.2,272.8,411.6,272.9,417.5,273.1c1.1,0,2.2-0.1,3.3,0
			C419.7,273,418.6,273.1,417.5,273.1z"/>
		<path class="st0" d="M615.3,271c-0.2,0.4-0.4,0.7-0.7,0.9C614.9,271.7,615.1,271.4,615.3,271z"/>
		<path class="st0" d="M77.6,194.3c-4.3-0.4-8.8-0.7-13.1,0.3c-1.8,0.4-2.1,2-2.6,3.5c-2.2,6.8-4.4,13.6-6.6,20.4
			c-1.6,4.9-3.4,9.8-5.2,15.1c-1.2-1.3-1-2.3-1-3.3c0-9,0-17.9-0.1-26.9c0-2,1.1-4.6-2.4-5.2c-5.5-0.9-8.2-0.1-9.5,3.3
			c-2.9,7.4-5.7,14.9-8.6,22.3c-1.3,3.2-2.8,6.4-4.3,9.8c-1.6-1.6-1-3-0.9-4.3c0.5-9.5,1.1-18.9,1.8-28.4c0.4-6.3,0.3-6.4-6.2-6.5
			c-1.8,0-3.6,0.1-5.4,0c-3.2-0.3-4.3,0.9-4.4,4.2c-0.5,21.2-1.5,42.4-1.9,63.6c-0.3,13.3-1.7,10.4,10.8,10.9
			c2.7,0.1,4.1-1.1,4.9-3.4c1.8-4.9,3.5-9.9,5.4-14.7c2.5-6.3,5.3-12.6,8.3-19.6c1.2,2.6,1,4.5,0.9,6.3c-0.2,9.3,0.3,18.7,1,28
			c0.1,1.4-0.1,3,2,3.5c7.8,1.9,10.9-0.1,13.6-7.9c3.4-10.3,7.2-20.5,11-30.7c4.5-12.1,9.1-24.2,13.6-36.3
			C79.4,196.6,80,194.5,77.6,194.3z"/>
		<path class="st0" d="M182.1,194c-1.1,0-2.2,0.1-3.3-0.1c-3.7-0.6-5.3,1.3-5.9,4.7c-2.1,11.8-4.3,23.5-5.3,35.5
			c-0.1,1.7,0.3,3.5-0.9,5.5c-1.2-1.4-1.1-2.5-1.2-3.6c-1.5-11.9-3.3-23.7-5.7-35.4c-1.3-6.2-1.2-6.2-7.3-6.2c-1.9,0-3.9,0.2-5.8,0
			c-3.5-0.4-5,1.2-5.6,4.5c-4.2,23.1-8.4,46.3-12.7,69.4c-0.6,3.3,0,5.4,4,5c2-0.2,4.1,0,6.2,0c5.6,0,5.7-0.3,6.6-5.9
			c2.1-12.8,4.2-25.7,5.5-38.7c0.5,0.9,0.8,1.8,0.9,2.7c1.8,11.8,3.6,23.7,5.2,35.5c0.7,5.1,1.7,6.1,6.7,6.1c2.3,0,4.7-0.1,7,0
			c3.2,0.1,4.8-1.4,5.3-4.5c4.2-22.3,8.5-44.5,12.7-66.8C189.9,194.3,189.6,194,182.1,194z"/>
		<path class="st0" d="M435,194.3c-2.3,0.1-4.7-0.1-7-0.3c-2.9-0.2-4.3,0.9-4.8,3.8c-1.1,7.2-2.4,14.4-3.7,21.5
			c-1.1,5.8-1.2,5.6-7.1,5.8c-3.5,0.1-4.1-1-3.5-4.3c1.5-7.6,2.5-15.2,3.7-22.8c0.3-2.1,0.3-4-2.6-4c-3.6,0-7.1,0.2-10.7,0.3
			c-2.1,0-3.2,0.9-3.4,3.1c-0.5,4.2-1.2,8.4-2,12.6c-3.7,20-7.5,40-11.3,59.9c-0.3,1.8,0.2,3,2.2,3c3.7,0,7.4,0,11.2,0
			c2,0,3.1-1.2,3.3-3c0.8-7.6,3-14.8,4.4-22.3c1.2-6.3,1.1-6.2,7.2-6.4c3.1-0.1,3.9,1.2,3.2,4c-1.5,6.6-2.3,13.3-3.3,19.9
			c-0.2,1.4-0.4,2.6-0.5,3.5c0,0.3-0.1,0.6-0.1,0.9c-0.1,3.2,1.3,3.3,7.1,3.5c1.1,0,2.2-0.1,3.3,0c4.1,0.5,6.1-1.3,6.4-5.4
			c0.3-3.3,0.8-6.6,1.4-9.8c3.7-19.5,7.2-39,10.3-58.5C439.5,196.1,439,194,435,194.3z"/>
		<path class="st0" d="M410.3,269.6c0-0.3,0-0.6,0.1-0.9C410.4,269.1,410.4,269.4,410.3,269.6z"/>
		<path class="st0" d="M122.2,198c-10-9.3-28.8-6.3-35.5,5.7c-3.8,6.8-5.6,14.2-7.1,21.8c-1.7,8.8-3.2,17.6-3.9,26.5
			c-0.6,8.4,1.3,16.8,9.6,20.4c11.7,5.1,27,3.4,32.6-12.7c5.4-15.5,8.1-31.7,8.9-48C126.6,206.6,126.2,201.8,122.2,198z
			 M110.1,213.6c-1.2,13.7-4,27.1-6.8,40.5c-0.7,3.5-3.2,5.3-7,5c-3.9-0.3-3.8-3.3-3.9-6.1c0-0.8,0-1.6,0-1.6
			c0.8-12.6,3.4-24,6.1-35.3c0.5-2,1.4-3.9,2.4-5.7c1.4-2.4,3.8-3.3,6.4-2.6C110,208.7,110.3,211.1,110.1,213.6z"/>
		<path class="st0" d="M228.2,195.3c-6.3-1.5-12.6-0.8-18.9-0.9c-6.4-0.1-6.4,0-7.6,6.4c-4.1,22.6-8.2,45.2-12.4,67.8
			c-0.6,3,0.3,4.4,3.6,4.3c3.4-0.1,6.9,0,10.3,0c0,0.1,0,0.2,0,0.4c2.9,0,5.8,0,8.7,0c8.7-0.1,16.1-3,20-11.4
			c7.9-16.8,10.9-34.6,8.1-53C239,202.4,235.4,197,228.2,195.3z M225.2,220.9c-0.7,9.6-2.2,19-5.3,28.2c-1,3-2.3,5.9-5.3,7.6
			c-1.9,1.1-4,1.7-5.9,0.5c-1.5-1-0.7-3.1-0.5-4.6c1.4-8.8,3.1-17.5,4.6-26.3c0.8-4.5,1.5-8.9,2.4-13.4c0.3-1.6,0-4,2.7-3.9
			c2.4,0.1,4.7,0.5,5.9,3C225.3,214.9,225.3,217.9,225.2,220.9z"/>
		<path class="st0" d="M579,234.5c-1-2.9-0.5-5.1,1.3-7.6c6.7-9.4,13.3-18.9,19.9-28.4c0.7-1.1,2.2-2.1,1.2-3.6
			c-0.9-1.4-2.5-0.9-3.8-0.9c-3,0-6.1,0.3-9.1,0.1c-2.2-0.1-3.7,0.4-4.9,2.3c-2.4,3.7-4.8,7.4-7.5,10.9c-2.3,2.9-3.7,6.6-7.2,8.8
			c-1-2.1-0.2-3.8,0.1-5.5c0.6-4.2,1.1-8.5,1.9-12.7c0.5-2.6-0.5-3.6-3-3.6c-2.5,0-5,0.3-7.4-0.1c-4.1-0.7-5.5,0.7-6.1,4.9
			c-2,14.2-4.6,28.3-6.9,42.4c-1.5,9.1-3.1,18.2-4.7,27.3c-0.6,3.2,0.3,4.7,3.8,4.3c2.5-0.3,5-0.2,7.4,0c3,0.3,4-1.1,4.6-3.9
			c1.9-8.9,3.2-17.9,4.7-27.2c1.8,1.2,1.9,2.6,2.3,3.9c1.7,5.5,3.5,11,5.1,16.5c3.2,10.7,3.2,10.7,14.2,10.7c1,0,1.9-0.1,2.9,0
			c3.3,0.3,4.1-0.8,2.9-4C586.6,257.5,582.9,246,579,234.5z"/>
		<path class="st0" d="M327.5,234.9c1.4-0.6,2.4-2.2,3.4-3.5c4.7-6.3,6.5-13.7,6.2-21.4c-0.4-10.3-4.4-14-14.7-15.2
			c-6.7-0.8-13.5-0.3-20.2-0.5c-2.8-0.1-3.8,1.2-4.2,3.9c-1.5,10.1-3.2,20.1-4.8,30.2c-2.2,13.6-4.3,27.1-6.6,40.7
			c-0.5,2.9,0.2,4.2,3.3,4.1c2.5-0.1,5-0.1,7.4,0.1c3.7,0.3,4.9-1.2,5.3-4.9c1-9.1,2.5-18.1,3.9-27.6c2.5,1.7,2.5,3.9,3,5.8
			c1.4,5.3,2.3,10.8,3.8,16c3.5,12.2,0.5,11,14.5,9.9c3.3-0.3,3.8-1.5,3-4.6c-2.2-8.1-4-16.3-6.2-24.4
			C323.5,239.8,322.9,236.7,327.5,234.9z M320.8,214.1c-0.4,4.9-1.2,9.6-6.3,12.1c-1.3,0.6-2.8,1-4,0.3c-1.5-0.8-0.7-2.5-0.6-3.8
			c0.5-3.7,1-7.3,1.5-11c0.3-2.5,0.5-4.7,3.9-4.5c3.2,0.2,5.3,1.3,5.4,4.8C320.8,212.7,320.8,213.4,320.8,214.1z"/>
		<path class="st0" d="M527.5,195c-6.7-1-13.5-0.4-20.2-0.7c-3.8-0.1-4.9,1.4-5.4,4.9c-3.2,20.8-6.7,41.5-9.9,62.3
			c-2,13.3-4.2,11.3,9.6,11.7c3.5,0.1,4.7-1.2,5.1-4.7c1-9.1,2.5-18.2,3.9-28.1c2.5,2.3,2.5,4.4,3,6.4c1.3,5.2,2.2,10.5,3.7,15.6
			c3.6,12.3,0.5,11.1,14.4,10.1c3.2-0.2,4-1.3,3.2-4.4c-2.3-8.6-4.3-17.3-6.6-26c-0.8-3-0.9-5.1,2.5-6.6c2.5-1.1,4-3.7,5.5-6
			c3.2-5.2,4.6-10.8,4.8-16.8C541.4,202.6,539.8,196.8,527.5,195z M518.6,226.2c-3.6,1.6-4.9,0.5-4.5-3.2c0.5-4,1.2-7.9,1.6-11.9
			c0.3-2.3,0.7-4.1,3.6-3.9c2.6,0.2,5.1,0.5,5.5,3.7c0.2,1.1,0.2,2.2,0.3,3.4C524.6,219.1,523.8,223.9,518.6,226.2z"/>
		<path class="st0" d="M480.7,204.6c-0.5-11.8,1.2-10.1-10.3-10.2c-0.3,0-0.6,0-0.8,0c-3.4-0.6-5.2,0.9-6.6,4
			c-10.1,21.6-17.7,44.2-27.2,66c-3.6,8.2-3.3,8.3,5.6,8.7c8.2,0.3,8.2,0.3,10.9-5.9c2.8-6.4,2.8-6.4,9.6-6.1c0.8,0,1.7,0.2,2.5,0.2
			c2-0.1,2.5,0.9,2.6,2.7c0.6,9.2,0.7,9.2,10,9.2c0.1,0,0.3,0,0.4,0c5.6,0,5.5,0,5.4-5.4C482.1,246.7,481.6,225.6,480.7,204.6z
			 M467.2,244.1c-0.1,2.9-2.9,1.7-4.7,1.7c-2,0-2.7-1.2-2.1-3c2.1-6.4,4.3-12.9,6.8-20.3C467.3,230.5,467.5,237.3,467.2,244.1z"/>
		<path class="st0" d="M671.3,241.1c-0.5-14.2-1.1-28.3-1.6-42.5c-0.1-1.5,0-3.5-1.8-3.8c-4.2-0.8-8.6-0.9-12.7,0
			c-2.7,0.6-3.1,4-4.1,6.3c-9.8,21.2-17.4,43.4-26.6,64.9c-2.9,6.8-2.7,6.8,4.9,7c9.4,0.2,9.5,0.2,13.2-8.5c1-2.3,2.4-3.6,5-3.4
			c1.9,0.1,3.9,0.1,5.8,0.1c2,0,2.8,0.9,3,3c0.9,9,0.9,9,10,8.9c0.4,0,0.8,0,1.2,0c3.8,0.5,4.6-1.4,4.5-4.8
			C671.9,259.2,671.7,250.1,671.3,241.1z M656.5,243.7c-0.3,2.9-2.7,2.1-4.6,2.1c-1.5,0-2.8-0.6-2.3-2.5c1.9-6.7,4.1-13.2,7.1-19.6
			C657.3,230.4,657.1,237.1,656.5,243.7z"/>
		<path class="st0" d="M366,193.2c-7.2-0.8-13.6,0.9-17.9,7c-4.8,6.8-5.8,14.5-3,22.4c2.1,6,7.3,9.9,11,14.8
			c4.1,5.4,6.5,11.1,5.3,18c-0.5,2.6-1.7,4.9-4.9,4.6c-3-0.3-3.5-2.9-3.8-5.2c-0.3-2.5-0.1-5-0.1-7.4c0-1.7-0.7-3-2.7-3
			c-11.9,0.1-12.7-2.3-12.8,11c0,0.5,0,1.1,0.1,1.6c0.9,11.7,7.8,17.9,19.5,17.5c1.9-0.1,3.9-0.2,5.8-0.4
			c6.7-0.8,12.6-5.7,14.1-12.2c3-12.8,0.6-24.3-8.9-33.8c-3.1-3.1-5.7-6.7-7.7-10.7c-1.4-2.8-1.1-5.6,0-8.4c0.7-1.7,1.9-2.7,3.8-2.6
			c2.1,0.2,3.3,1.5,3.5,3.5c0.1,2.2-0.1,4.4-0.2,6.6c-0.1,1.5,0.1,2.9,2,3c3.3,0.1,6.6,0,9.9,0c1.5,0,2-1.1,2.4-2.4
			C385.1,203.8,379.3,194.7,366,193.2z"/>
		<path class="st0" d="M288.3,196.9c0.3-1.8-0.4-2.9-2.4-2.9c-8.9,0-17.9,0.1-26.8,0.1c-2.5,0-3.6,1.5-3.8,3.9
			c-0.5,8.3-2.5,16.3-4,24.4c-3,15.7-6,31.3-8.5,47.1c-0.4,2.7,0.3,3.5,2.8,3.4c1.1,0,2.2,0,3.3,0c3.3,0,6.6,0,9.9,0
			c3.5,0,7,0,10.5,0c1.2,0,2.3,0,3.5,0.1c1.9,0,2.8-0.6,3.1-2.5c0.5-3.7,1.1-7.3,1.7-11c0.3-2-0.4-2.7-2.4-2.7
			c-3.6,0.1-7.2-0.2-10.7-0.2c-2.4,0-3.2-1-2.8-3.3c0.6-3.1,1.4-6.2,1.7-9.3c0.3-3,1.9-3.6,4.4-3.6c8.5,0.1,8.5,0,10.2-7.9
			c1.7-7.7,1.7-7.7-6.3-7.7c-5,0-5.3-0.3-4.4-5.1c0.4-2.3,0.9-4.6,1-6.9c0.2-2.5,1.5-3.3,3.7-3.3c3.7,0,7.4-0.1,11.2,0
			c1.7,0,3-0.4,3.3-2.3C287.2,203.7,287.7,200.3,288.3,196.9z"/>
		<path class="st0" d="M258.8,272.9c-3.3,0-6.6,0-9.9,0C252.2,272.9,255.5,272.9,258.8,272.9c3.5,0,7,0,10.5,0
			C265.8,272.9,262.3,272.9,258.8,272.9z"/>
		<path class="st0" d="M704.8,194.3c-2.7,0.3-5.5,0.2-8.3,0.1c-2.9-0.1-4.6,1.2-5.1,4.2c-0.9,5.1-1.9,10.3-2.8,15.4
			c-3,16.6-6.1,33.3-8.9,49.9c-1.5,9.3-3.1,8.7,7.6,9.1c9-0.1,7.8,1.1,9.3-7.6c2.7-15.7,5.3-31.5,8.4-47.1
			c1.3-6.7,2.3-13.6,3.5-20.3C708.9,195.3,707.9,193.9,704.8,194.3z"/>
		<path class="st0" d="M613.6,256.3c-1.2,0-2.5-0.1-3.7-0.1c-8.4,0-8.4,0-9.9,8.4c-1.4,8.1-1.2,8.3,7.1,8.3c0.1,0,0.3,0,0.4,0
			c3.5,0,5.4,0,6.6-0.6c0.2-0.1,0.3-0.2,0.5-0.3c0.3-0.2,0.5-0.5,0.7-0.9c0.6-1.1,0.9-3,1.3-5.9c0.2-1.4,0.5-2.7,0.7-4
			C618,258,616.8,256.4,613.6,256.3z"/>
	</g>
</g>
</svg>
